<svg width="16" height="17" viewBox="0 0 16 17" fill="none" xmlns="http://www.w3.org/2000/svg">
<path d="M5.8209 1.44842C5.89624 0.996364 6.28736 0.665039 6.74564 0.665039H8.90728C9.36557 0.665039 9.75668 0.996364 9.83203 1.44842L10.0099 2.51596C10.0619 2.82766 10.2702 3.0873 10.5467 3.24034C10.6085 3.27455 10.6696 3.3099 10.73 3.34635C11.0008 3.50991 11.3303 3.56076 11.6266 3.44975L12.6406 3.06985C13.0698 2.90908 13.5523 3.08213 13.7814 3.47902L14.8622 5.35105C15.0914 5.74794 15 6.25232 14.6462 6.54359L13.8092 7.2326C13.5655 7.43327 13.4446 7.74314 13.4505 8.05881C13.4511 8.09414 13.4515 8.12955 13.4515 8.16504C13.4515 8.20052 13.4511 8.23593 13.4505 8.27125C13.4446 8.58693 13.5655 8.8968 13.8092 9.09747L14.6462 9.78648C15 10.0778 15.0914 10.5821 14.8622 10.979L13.7814 12.8511C13.5523 13.2479 13.0698 13.421 12.6406 13.2602L11.6266 12.8803C11.3303 12.7693 11.0008 12.8202 10.73 12.9837C10.6696 13.0202 10.6085 13.0555 10.5467 13.0897C10.2702 13.2428 10.0619 13.5024 10.0099 13.8141L9.83203 14.8817C9.75668 15.3337 9.36557 15.665 8.90728 15.665H6.74565C6.28736 15.665 5.89624 15.3337 5.8209 14.8817L5.64298 13.8141C5.59103 13.5024 5.38272 13.2428 5.10624 13.0897C5.04443 13.0555 4.98333 13.0202 4.92297 12.9837C4.65211 12.8202 4.32267 12.7693 4.02636 12.8803L3.01231 13.2602C2.58315 13.421 2.10065 13.248 1.87151 12.8511L0.790692 10.979C0.561549 10.5821 0.652927 10.0778 1.00674 9.78649L1.8437 9.09748C2.08746 8.89681 2.20829 8.58694 2.20245 8.27126C2.20179 8.23594 2.20146 8.20053 2.20146 8.16504C2.20146 8.12956 2.20179 8.09415 2.20245 8.05883C2.20829 7.74315 2.08746 7.43328 1.8437 7.23262L1.00674 6.5436C0.652927 6.25233 0.561549 5.74795 0.790692 5.35106L1.87151 3.47903C2.10065 3.08214 2.58315 2.90909 3.01231 3.06987L4.02635 3.44976C4.32265 3.56077 4.6521 3.50991 4.92296 3.34636C4.98332 3.3099 5.04443 3.27456 5.10624 3.24034C5.38272 3.0873 5.59103 2.82766 5.64298 2.51595L5.8209 1.44842Z" stroke="#151515" stroke-width="1.33" stroke-linecap="round" stroke-linejoin="round"/>
<path d="M10.3263 8.16497C10.3263 9.54569 9.20698 10.665 7.82627 10.665C6.44556 10.665 5.32627 9.54569 5.32627 8.16497C5.32627 6.78426 6.44556 5.66497 7.82627 5.66497C9.20698 5.66497 10.3263 6.78426 10.3263 8.16497Z" stroke="#151515" stroke-width="1.33" stroke-linecap="round" stroke-linejoin="round"/>
</svg>
