<svg width="17" height="16" viewBox="0 0 17 16" fill="none" xmlns="http://www.w3.org/2000/svg">
<path d="M5.35254 7.54004C5.35254 7.71263 5.21263 7.85254 5.04004 7.85254C4.86745 7.85254 4.72754 7.71263 4.72754 7.54004C4.72754 7.36745 4.86745 7.22754 5.04004 7.22754C5.21263 7.22754 5.35254 7.36745 5.35254 7.54004ZM5.35254 7.54004H5.04004M8.47754 7.54004C8.47754 7.71263 8.33763 7.85254 8.16504 7.85254C7.99245 7.85254 7.85254 7.71263 7.85254 7.54004C7.85254 7.36745 7.99245 7.22754 8.16504 7.22754C8.33763 7.22754 8.47754 7.36745 8.47754 7.54004ZM8.47754 7.54004H8.16504M11.6025 7.54004C11.6025 7.71263 11.4626 7.85254 11.29 7.85254C11.1175 7.85254 10.9775 7.71263 10.9775 7.54004C10.9775 7.36745 11.1175 7.22754 11.29 7.22754C11.4626 7.22754 11.6025 7.36745 11.6025 7.54004ZM11.6025 7.54004H11.29M15.665 7.54004C15.665 11.337 12.3072 14.415 8.16504 14.415C7.42548 14.415 6.71092 14.3169 6.03602 14.1341C5.22351 14.7049 4.23338 15.04 3.16504 15.04C2.99902 15.04 2.83484 15.032 2.6731 15.0162C2.54004 15.0032 2.4082 14.985 2.2782 14.9617C2.68114 14.4861 2.96735 13.9089 3.09328 13.274C3.16882 12.8932 2.98229 12.5233 2.70407 12.2525C1.43979 11.0218 0.665039 9.36388 0.665039 7.54004C0.665039 3.74308 4.0229 0.665039 8.16504 0.665039C12.3072 0.665039 15.665 3.74308 15.665 7.54004Z" stroke="#151515" stroke-width="1.33" stroke-linecap="round" stroke-linejoin="round"/>
</svg>
