<svg width="16" height="17" viewBox="0 0 16 17" fill="none" xmlns="http://www.w3.org/2000/svg">
<path d="M9.97202 12.3998C11.5508 12.2125 13.0732 11.8413 14.5173 11.3083C13.3199 9.97922 12.5911 8.21974 12.5911 6.29004V5.70603C12.5913 5.69238 12.5913 5.67872 12.5913 5.66504C12.5913 2.90362 10.3527 0.665039 7.59131 0.665039C4.82989 0.665039 2.59131 2.90362 2.59131 5.66504L2.59114 6.29004C2.59114 8.21974 1.86237 9.97922 0.665039 11.3083C2.10914 11.8414 3.63167 12.2126 5.21059 12.3998M9.97202 12.3998C9.19129 12.4924 8.39678 12.54 7.59114 12.54C6.78562 12.54 5.99121 12.4924 5.21059 12.3998M9.97202 12.3998C10.0495 12.641 10.0913 12.8981 10.0913 13.165C10.0913 14.5458 8.97202 15.665 7.59131 15.665C6.2106 15.665 5.09131 14.5458 5.09131 13.165C5.09131 12.8981 5.13313 12.641 5.21059 12.3998" stroke="#151515" stroke-width="1.33" stroke-linecap="round" stroke-linejoin="round"/>
</svg>
