<svg width="18" height="17" viewBox="0 0 18 17" fill="none" xmlns="http://www.w3.org/2000/svg">
<path d="M11.29 14.1047C11.9842 14.3067 12.7182 14.415 13.4775 14.415C14.7098 14.415 15.8755 14.1297 16.912 13.6216C16.914 13.5738 16.915 13.5258 16.915 13.4775C16.915 11.5791 15.376 10.04 13.4775 10.04C12.2958 10.04 11.2534 10.6363 10.6347 11.5444M11.29 14.1047V14.1025C11.29 13.1751 11.0524 12.3032 10.6347 11.5444M11.29 14.1047C11.29 14.1344 11.2898 14.164 11.2893 14.1936C9.73784 15.1277 7.92043 15.665 5.97754 15.665C4.03464 15.665 2.21724 15.1277 0.665806 14.1936C0.665297 14.1633 0.665039 14.133 0.665039 14.1025C0.665039 11.1685 3.04353 8.79004 5.97754 8.79004C7.98414 8.79004 9.7309 9.90253 10.6347 11.5444M8.79004 3.47754C8.79004 5.03084 7.53084 6.29004 5.97754 6.29004C4.42424 6.29004 3.16504 5.03084 3.16504 3.47754C3.16504 1.92424 4.42424 0.665039 5.97754 0.665039C7.53084 0.665039 8.79004 1.92424 8.79004 3.47754ZM15.665 5.35254C15.665 6.56066 14.6857 7.54004 13.4775 7.54004C12.2694 7.54004 11.29 6.56066 11.29 5.35254C11.29 4.14442 12.2694 3.16504 13.4775 3.16504C14.6857 3.16504 15.665 4.14442 15.665 5.35254Z" stroke="#151515" stroke-width="1.33" stroke-linecap="round" stroke-linejoin="round"/>
</svg>
