<svg width="17" height="17" viewBox="0 0 17 17" fill="none" xmlns="http://www.w3.org/2000/svg">
<path d="M6.39746 4.43074C7.37377 3.57647 8.95669 3.57647 9.933 4.43074C10.9093 5.28502 10.9093 6.67006 9.933 7.52434C9.76307 7.67302 9.57477 7.79583 9.37448 7.89276C8.75307 8.19349 8.16523 8.72468 8.16523 9.41504V10.04M15.665 8.16504C15.665 12.3072 12.3072 15.665 8.16504 15.665C4.0229 15.665 0.665039 12.3072 0.665039 8.16504C0.665039 4.0229 4.0229 0.665039 8.16504 0.665039C12.3072 0.665039 15.665 4.0229 15.665 8.16504ZM8.16504 12.54H8.17129V12.5463H8.16504V12.54Z" stroke="#151515" stroke-width="1.33" stroke-linecap="round" stroke-linejoin="round"/>
</svg>
