<svg width="17" height="17" viewBox="0 0 17 17" fill="none" xmlns="http://www.w3.org/2000/svg">
<path d="M8.16504 5.90315V9.02815M8.16504 0.665039C6.37296 2.36223 3.95306 3.40316 1.29004 3.40316C1.24773 3.40316 1.20547 3.4029 1.16328 3.40238C0.839954 4.3858 0.665039 5.43657 0.665039 6.5282C0.665039 11.1878 3.85197 15.1031 8.16504 16.2132C12.4781 15.1031 15.665 11.1878 15.665 6.5282C15.665 5.43657 15.4901 4.3858 15.1668 3.40238C15.1246 3.4029 15.0824 3.40316 15.04 3.40316C12.377 3.40316 9.95712 2.36223 8.16504 0.665039ZM8.16504 11.5282H8.17129V11.5344H8.16504V11.5282Z" stroke="#151515" stroke-width="1.33" stroke-linecap="round" stroke-linejoin="round"/>
</svg>
