<svg width="17" height="16" viewBox="0 0 17 16" fill="none" xmlns="http://www.w3.org/2000/svg">
<path d="M7.8635 0.953775C8.02362 0.568794 8.56899 0.568794 8.72912 0.953775L10.5008 5.21332C10.5683 5.37562 10.7209 5.48651 10.8961 5.50056L15.4946 5.86922C15.9103 5.90254 16.0788 6.42122 15.7621 6.69247L12.2585 9.69368C12.125 9.80803 12.0667 9.98746 12.1075 10.1584L13.1779 14.6458C13.2747 15.0514 12.8335 15.372 12.4776 15.1546L8.54065 12.7499C8.39064 12.6583 8.20198 12.6583 8.05197 12.7499L4.11498 15.1546C3.75915 15.372 3.31794 15.0514 3.41468 14.6458L4.48509 10.1584C4.52588 9.98746 4.46758 9.80803 4.33408 9.69368L0.830481 6.69247C0.513823 6.42122 0.68235 5.90254 1.09797 5.86922L5.69651 5.50056C5.87172 5.48651 6.02435 5.37562 6.09186 5.21332L7.8635 0.953775Z" stroke="#151515" stroke-width="1.33" stroke-linecap="round" stroke-linejoin="round"/>
</svg>
