<svg width="20" height="20" viewBox="0 0 20 20" fill="none" xmlns="http://www.w3.org/2000/svg">
<path d="M6.875 4.4375H15C15.1492 4.4375 15.2929 4.49705 15.3984 4.60254C15.5037 4.708 15.5625 4.85096 15.5625 5V13.125C15.5625 13.274 15.5037 13.417 15.3984 13.5225C15.2929 13.628 15.1492 13.6875 15 13.6875C14.8509 13.6874 14.7079 13.6279 14.6025 13.5225C14.4972 13.417 14.4375 13.2741 14.4375 13.125V6.35742L14.3311 6.46484L5.39844 15.3984C5.2929 15.5039 5.14919 15.5625 5 15.5625C4.851 15.5624 4.70798 15.5037 4.60254 15.3984C4.49698 15.2929 4.4375 15.1493 4.4375 15C4.4375 14.8507 4.49698 14.7071 4.60254 14.6016L13.5361 5.66895L13.6426 5.5625H6.875C6.72594 5.56241 6.58295 5.50287 6.47754 5.39746C6.37216 5.29199 6.3125 5.1491 6.3125 5C6.3125 4.8509 6.37216 4.70801 6.47754 4.60254C6.58295 4.49713 6.72594 4.43759 6.875 4.4375Z" fill="#1053E5" stroke="#1053E5" stroke-width="0.125"/>
</svg>
