<?xml version="1.0" encoding="UTF-8"?>
<svg id="Layer_1" data-name="Layer 1" xmlns="http://www.w3.org/2000/svg" viewBox="0 0 60 60">
  <path d="M49.89,42.17c0,.39-.01.77-.04,1.14-.05.72-.15,1.41-.3,2.08s-.34,1.31-.58,1.92c-.33.86-.74,1.67-1.23,2.43-.39.6-.82,1.18-1.29,1.72-.53.61-1.12,1.18-1.75,1.71-.69.57-1.42,1.1-2.2,1.57s-1.6.89-2.45,1.26-1.83.71-2.78.98c-.86.24-1.74.44-2.64.59-.83.14-1.68.23-2.53.29-.5.03-1,.05-1.5.05s-1-.01-1.5-.04c-.92-.05-1.8-.14-2.64-.27-.75-.11-1.47-.25-2.16-.42-.92-.22-1.79-.49-2.62-.8-1.01-.38-1.95-.82-2.82-1.33-.54-.31-1.06-.65-1.55-1-.42-.3-.82-.62-1.21-.96-.43-.37-.83-.76-1.21-1.16-.27-.28-.53-.58-.77-.88-.32-.38-.61-.78-.89-1.18s-.54-.82-.78-1.24c-.31-.54-.59-1.09-.84-1.66-.2-.45-.38-.9-.55-1.37-.21-.58-.39-1.18-.55-1.78-.11-.41-.2-.82-.29-1.23-.17-.83-.29-1.68-.37-2.55-.03-.35-.05-.7-.07-1.05-.03-.76-.01-1.51.04-2.26.03-.39.07-.78.12-1.16.07-.52.15-1.04.25-1.55.13-.65.28-1.29.46-1.92.16-.55.33-1.09.52-1.62.22-.61.46-1.21.72-1.79.17-.39.36-.78.55-1.16.28-.55.57-1.08.87-1.6.2-.35.41-.69.63-1.02.24-.36.48-.72.72-1.06.33-.46.66-.89,1-1.31.39-.47.78-.91,1.17-1.32-.06.71-.07,1.45.02,2.16.11.92.38,1.81.88,2.58.22.34.5.66.82.92.42.35.9.61,1.41.77.66.2,1.36.21,2-.04.41-.16.75-.4,1.04-.69.45-.47.76-1.09.93-1.76.12-.47.18-.96.17-1.45s-.06-.98-.18-1.45c-.11-.43-.25-.86-.41-1.27-.19-.51-.42-1-.64-1.5-.15-.33-.3-.67-.44-1-.19-.45-.37-.9-.52-1.36-.07-.23-.14-.46-.2-.7-.16-.68-.24-1.37-.24-2.07,0-.58.06-1.15.17-1.72.09-.5.23-1,.39-1.49s.37-.98.61-1.45c.36-.72.79-1.41,1.27-2.05.16-.21.32-.41.49-.61.27-.31.55-.61.84-.89.53-.52,1.09-1,1.68-1.44.4-.3.81-.59,1.23-.86.54-.35,1.09-.67,1.66-.97.46-.25.94-.49,1.41-.71.51-.24,1.03-.47,1.54-.69-.23.27-.44.57-.63.88-.29.5-.52,1.03-.68,1.59-.2.7-.29,1.43-.28,2.15.01.61.1,1.21.27,1.79s.41,1.14.74,1.66c.14.22.29.44.46.64.35.44.75.85,1.17,1.22.36.31.73.61,1.12.9s.78.56,1.17.84c.36.25.72.5,1.07.76.43.31.85.64,1.25.98.26.23.52.47.76.72.4.42.77.87,1.11,1.34.19.27.37.54.54.82.32.53.59,1.09.82,1.66s.43,1.19.56,1.8.22,1.23.25,1.85,0,1.23-.08,1.84c-.1.67-.27,1.33-.51,1.97-.07.18-.15.37-.24.55-.17.37-.37.72-.58,1.07-.19.32-.38.63-.57.95-.25.41-.48.82-.69,1.25-.09.19-.17.38-.24.57-.18.5-.31,1.02-.34,1.54s.04,1.03.24,1.52c.11.26.27.51.47.72.31.34.72.6,1.15.73.48.15.99.13,1.44-.11.38-.2.65-.53.82-.93.2-.48.27-1.08.22-1.72s-.21-1.35-.47-2.05c.54.2,1.05.46,1.54.75.54.33,1.04.72,1.5,1.15.61.57,1.15,1.22,1.62,1.92.35.53.66,1.09.93,1.67.32.69.58,1.41.77,2.15.18.66.3,1.34.38,2.02.06.49.08.99.08,1.48Z" style="fill: #0f4cd0;"/>
</svg>