<svg width="20" height="21" viewBox="0 0 20 21" fill="none" xmlns="http://www.w3.org/2000/svg">
<path d="M6.17383 14.5684C6.07893 14.6949 5.97461 14.8144 5.86133 14.9248L5.86035 14.9258C5.57135 15.2087 5.22739 15.4302 4.85059 15.5771C4.52115 15.7056 4.17206 15.7744 3.81934 15.7812H3.66602C3.27967 15.7701 2.89893 15.682 2.54688 15.5225L1.53027 15.0615V18.75C1.53027 19.1399 1.68526 19.5144 1.96094 19.79C2.23659 20.0656 2.61025 20.2207 3 20.2207H16.5C16.8898 20.2207 17.2634 20.0656 17.5391 19.79C17.8147 19.5144 17.9697 19.1399 17.9697 18.75V15.0615L16.9531 15.5225C16.6052 15.6801 16.2294 15.7674 15.8477 15.7803H15.748C14.9605 15.7825 14.2032 15.4749 13.6406 14.9238L13.6377 14.9209C13.5243 14.8111 13.4193 14.6924 13.3242 14.5664L12.748 13.8027L12.1738 14.5684C11.8916 14.9446 11.5261 15.2506 11.1055 15.4609C10.6847 15.6713 10.2204 15.7803 9.75 15.7803C9.27961 15.7803 8.81526 15.6713 8.39453 15.4609C7.97388 15.2506 7.60836 14.9446 7.32617 14.5684L6.75 13.8008L6.17383 14.5684ZM2.25 9.03027C1.86025 9.03027 1.48659 9.18541 1.21094 9.46094C0.935374 9.7365 0.780402 10.1103 0.780273 10.5V12.6875C0.780273 14.2501 1.97379 15.5886 3.51562 15.7119L3.66602 15.7197C4.06299 15.731 4.45809 15.6627 4.82812 15.5186C5.19812 15.3744 5.5356 15.1577 5.82031 14.8809C6.10508 14.6039 6.33184 14.2722 6.48633 13.9062C6.64073 13.5404 6.71989 13.1471 6.71973 12.75C6.71985 12.7423 6.72315 12.735 6.72852 12.7295C6.73414 12.7239 6.74204 12.7207 6.75 12.7207C6.75796 12.7207 6.76586 12.7239 6.77148 12.7295C6.77685 12.735 6.78015 12.7423 6.78027 12.75C6.78027 13.5376 7.09258 14.2936 7.64941 14.8506C8.13668 15.3379 8.7763 15.6385 9.45605 15.7061L9.75 15.7207C10.5377 15.7207 11.2936 15.4076 11.8506 14.8506C12.4074 14.2936 12.7197 13.5376 12.7197 12.75C12.7198 12.7423 12.7232 12.735 12.7285 12.7295C12.7341 12.7239 12.742 12.7207 12.75 12.7207C12.758 12.7207 12.7659 12.7239 12.7715 12.7295C12.7768 12.735 12.7802 12.7423 12.7803 12.75V12.751C12.7803 13.1479 12.8602 13.5406 13.0146 13.9062C13.1692 14.2719 13.395 14.6031 13.6797 14.8799C13.9644 15.1566 14.3019 15.3734 14.6719 15.5176C15.0415 15.6616 15.4364 15.7308 15.833 15.7197V15.7188C17.4475 15.6748 18.7197 14.3004 18.7197 12.6875V10.5C18.7196 10.1103 18.5646 9.7365 18.2891 9.46094C18.0134 9.18541 17.6398 9.03027 17.25 9.03027H2.25ZM9.27148 1.16895C8.68881 1.68655 7.53051 2.89381 7.53027 4.5C7.53027 5.08878 7.76433 5.65398 8.18066 6.07031C8.54486 6.43439 9.02228 6.65946 9.53027 6.70996L9.75 6.7207C10.3387 6.7207 10.903 6.48649 11.3193 6.07031C11.7357 5.65398 11.9697 5.08878 11.9697 4.5C11.9695 2.89381 10.8112 1.68655 10.2285 1.16895L9.75 0.744141L9.27148 1.16895ZM9.71973 6.84961L9.18066 6.70996C8.69126 6.58277 8.2578 6.29633 7.94824 5.89648C7.63879 5.49665 7.47025 5.0056 7.46973 4.5L7.47559 4.2998C7.53383 3.30701 8.01654 2.46091 8.55469 1.81738C9.1237 1.13699 9.70468 0.742888 9.7334 0.723633C9.73818 0.720622 9.74434 0.719727 9.75 0.719727C9.75539 0.719727 9.761 0.720894 9.76562 0.723633V0.724609C9.7914 0.741878 10.3748 1.13514 10.9453 1.81738C11.5193 2.50375 12.0301 3.42056 12.0303 4.5L12.0225 4.68848C11.9858 5.12678 11.8226 5.54655 11.5518 5.89648C11.2422 6.29633 10.8087 6.58277 10.3193 6.70996L9.78027 6.84961V8.9707H17.25C17.6558 8.9707 18.0451 9.13201 18.332 9.41895C18.6187 9.70574 18.7801 10.0945 18.7803 10.5V12.6875C18.7795 13.3516 18.5657 13.9982 18.1709 14.5322L18.0303 14.7227V18.75C18.0303 19.1557 17.8688 19.5451 17.582 19.832C17.2951 20.119 16.9058 20.2803 16.5 20.2803H3C2.59422 20.2803 2.2049 20.119 1.91797 19.832C1.63119 19.5451 1.46973 19.1557 1.46973 18.75V14.7227L1.3291 14.5322C0.93418 13.998 0.720351 13.3508 0.719727 12.6865V10.5C0.719855 10.0945 0.881306 9.70574 1.16797 9.41895C1.41901 9.16791 1.74842 9.01234 2.09863 8.97754L2.25 8.9707H9.71973V6.84961Z" fill="#1053E5" stroke="#1053E5" stroke-width="1.44"/>
</svg>
