<svg width="60" height="60" viewBox="0 0 60 60" fill="none" xmlns="http://www.w3.org/2000/svg">
<path d="M33.508 0H51.9571C55.7125 0.000148002 58.3635 5.50084 58.33 9.29116V36.4612C58.33 39.1781 56.5525 42.7336 54.3722 44.3772L35.9232 58.1636C32.6695 60.6121 27.3363 60.6122 24.0826 58.1636L5.63405 44.3772C3.45376 42.7672 1.6758 39.1782 1.67578 36.4612V9.29116C1.67582 5.50079 4.50194 0 8.1163 0H26.5649H33.508Z" fill="url(#paint0_linear_1_267359)"/>
<path d="M45.2978 37.2859C44.9948 37.8119 44.5573 38.248 44.0302 38.5492C43.5031 38.8504 42.9054 39.006 42.2983 39.0001H17.703C17.0959 39.006 16.4982 38.8504 15.9711 38.5492C15.444 38.248 15.0065 37.8119 14.7035 37.2859C14.4078 36.7798 14.252 36.2042 14.252 35.6181C14.252 35.0319 14.4078 34.4563 14.7035 33.9502L26.9983 12.5935C27.3056 12.0703 27.7443 11.6365 28.271 11.335C28.7976 11.0336 29.3938 10.875 30.0006 10.875C30.6074 10.875 31.2037 11.0336 31.7303 11.335C32.257 11.6365 32.6957 12.0703 33.003 12.5935L45.3006 33.9502C45.5959 34.4566 45.7512 35.0323 45.7508 35.6184C45.7503 36.2046 45.5939 36.78 45.2978 37.2859Z" fill="white"/>
<defs>
<linearGradient id="paint0_linear_1_267359" x1="1.67751" y1="59.935" x2="66.7241" y2="11.061" gradientUnits="userSpaceOnUse">
<stop stop-color="#3D10BD"/>
<stop offset="1" stop-color="#62BDFF"/>
</linearGradient>
</defs>
</svg>
