<svg width="17" height="17" viewBox="0 0 17 17" fill="none" xmlns="http://www.w3.org/2000/svg">
<path d="M8.125 0.0517578C10.2654 0.0540316 12.3176 0.905472 13.8311 2.41895C15.3445 3.93242 16.196 5.98463 16.1982 8.125C16.1982 9.72167 15.724 11.2828 14.8369 12.6104C13.95 13.9376 12.6896 14.972 11.2148 15.583C9.73971 16.194 8.1158 16.3545 6.5498 16.043C4.98389 15.7314 3.54596 14.962 2.41699 13.833C1.28802 12.704 0.518553 11.2661 0.207031 9.7002C-0.104464 8.1342 0.0559722 6.51029 0.666992 5.03516C1.27798 3.56041 2.31242 2.30003 3.63965 1.41309C4.88428 0.58145 6.33419 0.112869 7.82617 0.0576172L8.125 0.0517578ZM10.7764 1.72559C9.51061 1.20129 8.11716 1.06377 6.77344 1.33105C5.42978 1.59836 4.19529 2.25783 3.22656 3.22656C2.25783 4.19529 1.59836 5.42978 1.33105 6.77344C1.06377 8.11716 1.20129 9.51061 1.72559 10.7764C2.2499 12.0419 3.13741 13.1237 4.27637 13.8848C5.41552 14.6459 6.75495 15.0518 8.125 15.0518C9.96152 15.0497 11.7219 14.3191 13.0205 13.0205C14.3191 11.7219 15.0497 9.96152 15.0518 8.125C15.0518 6.75495 14.6459 5.41552 13.8848 4.27637C13.1237 3.13741 12.0419 2.2499 10.7764 1.72559ZM11.25 5.67676C11.3253 5.67676 11.4002 5.69187 11.4697 5.7207C11.5391 5.74953 11.6022 5.79157 11.6553 5.84473C11.7084 5.89782 11.7505 5.9609 11.7793 6.03027C11.8081 6.09982 11.8232 6.17471 11.8232 6.25C11.8232 6.32529 11.8081 6.40018 11.7793 6.46973C11.7505 6.5391 11.7084 6.60218 11.6553 6.65527L7.28027 11.0303C7.22718 11.0834 7.1641 11.1255 7.09473 11.1543C7.02518 11.1831 6.95029 11.1982 6.875 11.1982C6.79971 11.1982 6.72482 11.1831 6.65527 11.1543C6.62067 11.1399 6.58764 11.1223 6.55664 11.1016L6.46973 11.0303L4.59473 9.15527C4.48722 9.04777 4.42676 8.90204 4.42676 8.75C4.42676 8.59796 4.48722 8.45223 4.59473 8.34473C4.70223 8.23722 4.84796 8.17676 5 8.17676C5.15204 8.17676 5.29777 8.23722 5.40527 8.34473L6.83789 9.77832L6.875 9.81543L6.91211 9.77832L10.8447 5.84473C10.8978 5.79157 10.9609 5.74953 11.0303 5.7207C11.0998 5.69187 11.1747 5.67676 11.25 5.67676Z" fill="#1053E5" stroke="#1053E5" stroke-width="0.104167"/>
</svg>
