<svg width="23" height="17" viewBox="0 0 23 17" fill="none" xmlns="http://www.w3.org/2000/svg">
<path d="M11.2803 15.458L11.8955 15.5479C13.4568 15.7768 15.0432 15.7768 16.6045 15.5479L17.2197 15.458V11.7861L16.4072 11.8916C15.6924 11.9847 14.9719 12.0313 14.251 12.0303H14.25C13.5297 12.0306 12.8096 11.9827 12.0957 11.8867L11.2803 11.7764V15.458ZM20.584 10.4688C19.9123 10.9445 18.9777 11.3497 17.8301 11.6279L17.2803 11.7617V15.4678L18.1934 15.2129C19.1638 14.9419 19.9988 14.5723 20.6084 14.1348C21.1845 13.7212 21.7197 13.1257 21.7197 12.375V9.66406L20.584 10.4688ZM15.7803 7.875C15.7803 8.79877 14.9207 9.82635 12.9648 10.5391L13.1641 11.9336C13.521 11.9571 13.8836 11.9697 14.25 11.9697C16.2606 11.9697 18.0446 11.6109 19.3506 11.0674C20.0011 10.7967 20.5631 10.467 20.9756 10.0879C21.3775 9.71854 21.7197 9.22176 21.7197 8.625C21.7197 8.16991 21.5101 7.76923 21.2412 7.4502C20.9692 7.12749 20.5963 6.83824 20.1611 6.58594C19.289 6.08028 18.0722 5.66957 16.6064 5.45117L15.7803 5.32812V7.875ZM10.4072 7.3916C9.69237 7.48475 8.97188 7.53129 8.25098 7.53027H8.24902C7.52812 7.53129 6.80763 7.48475 6.09277 7.3916L5.28027 7.28613V10.957L5.89453 11.0479C6.67398 11.163 7.46112 11.2195 8.24902 11.2188V11.2197C9.03752 11.2206 9.82544 11.1631 10.6055 11.0479L11.2197 10.957V7.28613L10.4072 7.3916ZM14.584 5.96875C13.9123 6.4445 12.9777 6.8497 11.8301 7.12793L11.2803 7.26172V10.9678L12.1934 10.7129C13.1638 10.4419 13.9988 10.0723 14.6084 9.63477C15.1845 9.22118 15.7197 8.62571 15.7197 7.875V5.16406L14.584 5.96875ZM8.25 0.780273C6.23942 0.780273 4.45538 1.13909 3.14941 1.68262C2.49894 1.95334 1.9369 2.28301 1.52441 2.66211C1.12253 3.03146 0.780273 3.52824 0.780273 4.125C0.780273 4.72176 1.12253 5.21854 1.52441 5.58789C1.9369 5.96699 2.49894 6.29666 3.14941 6.56738C4.45538 7.11091 6.23942 7.46973 8.25 7.46973C10.2606 7.46973 12.0446 7.11091 13.3506 6.56738C14.0011 6.29666 14.5631 5.96699 14.9756 5.58789C15.3775 5.21854 15.7197 4.72176 15.7197 4.125C15.7197 3.52824 15.3775 3.03146 14.9756 2.66211C14.5631 2.28301 14.0011 1.95334 13.3506 1.68262C12.0446 1.13909 10.2606 0.780273 8.25 0.780273ZM11.2197 11.752L10.668 11.6191C10.2932 11.5291 9.92347 11.419 9.56055 11.2891L9.42188 11.2402L9.27539 11.248C8.93873 11.268 8.59765 11.2803 8.25 11.2803C8.00812 11.2803 7.76847 11.2738 7.52734 11.2646L6.78027 11.2363V12.375C6.78027 13.1257 7.31546 13.7212 7.8916 14.1348C8.50122 14.5723 9.33616 14.9419 10.3066 15.2129L11.2197 15.4678V11.752ZM6.71973 11.2246L6.09375 11.1416C4.39546 10.918 3.0083 10.438 2.06738 9.82227C1.12113 9.20304 0.719727 8.51886 0.719727 7.875V4.125C0.719727 3.35425 1.30655 2.51377 2.68359 1.8252C4.03313 1.1504 5.97829 0.719727 8.25 0.719727C10.5217 0.719727 12.4669 1.1504 13.8164 1.8252C15.1935 2.51377 15.7803 3.35425 15.7803 4.125V5.27832L16.4053 5.36133C18.1439 5.59161 19.5304 6.07462 20.46 6.68848C21.3917 7.30379 21.7803 7.98388 21.7803 8.625V12.375C21.7803 13.1458 21.1935 13.9862 19.8164 14.6748C18.4669 15.3496 16.5217 15.7803 14.25 15.7803C11.9783 15.7803 10.0331 15.3496 8.68359 14.6748C7.30655 13.9862 6.71973 13.1458 6.71973 12.375V11.2246ZM5.21973 7.26172L4.66992 7.12793C3.52233 6.8497 2.58769 6.4445 1.91602 5.96875L0.780273 5.16406V7.875C0.780273 8.62571 1.31546 9.22118 1.8916 9.63477C2.50122 10.0723 3.33616 10.4419 4.30664 10.7129L5.21973 10.9678V7.26172Z" fill="#1053E5" stroke="#1053E5" stroke-width="1.44"/>
</svg>
