<svg width="40" height="40" viewBox="0 0 40 40" fill="none" xmlns="http://www.w3.org/2000/svg">
<path d="M22.3367 0H34.6361C37.1397 9.86678e-05 38.9071 3.66723 38.8847 6.19411V24.3074C38.8847 26.1187 37.6997 28.489 36.2462 29.5848L23.9468 38.7757C21.7777 40.4081 18.2222 40.4081 16.0531 38.7757L3.75408 29.5848C2.30056 28.5114 1.11525 26.1188 1.11523 24.3074V6.19411C1.11526 3.66719 2.99934 0 5.40891 0H17.708H22.3367Z" fill="#1750CF"/>
<path d="M22.3367 0H34.6361C37.1397 9.86678e-05 38.9071 3.66723 38.8847 6.19411V24.3074C38.8847 26.1187 37.6997 28.489 36.2462 29.5848L23.9468 38.7757C21.7777 40.4081 18.2222 40.4081 16.0531 38.7757L3.75408 29.5848C2.30056 28.5114 1.11525 26.1188 1.11523 24.3074V6.19411C1.11526 3.66719 2.99934 0 5.40891 0H17.708H22.3367Z" fill="url(#paint0_linear_1_268296)"/>
<path d="M30.4995 17.0003C30.5001 17.1967 30.4617 17.3914 30.3865 17.5729C30.3114 17.7544 30.201 17.9192 30.0617 18.0578L21.057 27.0634C20.776 27.3428 20.3958 27.4996 19.9995 27.4996C19.6033 27.4996 19.2231 27.3428 18.942 27.0634L9.94205 18.0578C9.66267 17.7767 9.50586 17.3966 9.50586 17.0003C9.50586 16.604 9.66267 16.2238 9.94205 15.9428L18.9467 6.93717C19.2278 6.65779 19.608 6.50098 20.0042 6.50098C20.4005 6.50098 20.7807 6.65779 21.0617 6.93717L30.0664 15.9428C30.2048 16.0818 30.3144 16.2467 30.3887 16.4282C30.463 16.6097 30.5007 16.8042 30.4995 17.0003Z" fill="white"/>
<defs>
<linearGradient id="paint0_linear_1_268296" x1="1.11639" y1="39.9567" x2="44.4808" y2="7.37399" gradientUnits="userSpaceOnUse">
<stop stop-color="#3D10BD"/>
<stop offset="1" stop-color="#62BDFF"/>
</linearGradient>
</defs>
</svg>
