<svg width="15" height="13" viewBox="0 0 15 13" fill="none" xmlns="http://www.w3.org/2000/svg">
<path d="M0.625 3.1299H3.20312C3.34081 3.66766 3.65356 4.1443 4.09207 4.48468C4.53057 4.82505 5.06989 5.0098 5.625 5.0098C6.18011 5.0098 6.71943 4.82505 7.15793 4.48468C7.59644 4.1443 7.90919 3.66766 8.04688 3.1299H14.375C14.5408 3.1299 14.6997 3.06405 14.8169 2.94684C14.9342 2.82963 15 2.67066 15 2.5049C15 2.33914 14.9342 2.18017 14.8169 2.06296C14.6997 1.94575 14.5408 1.8799 14.375 1.8799H8.04688C7.90919 1.34214 7.59644 0.865503 7.15793 0.525127C6.71943 0.184751 6.18011 0 5.625 0C5.06989 0 4.53057 0.184751 4.09207 0.525127C3.65356 0.865503 3.34081 1.34214 3.20312 1.8799H0.625C0.45924 1.8799 0.300269 1.94575 0.183058 2.06296C0.0658481 2.18017 0 2.33914 0 2.5049C0 2.67066 0.0658481 2.82963 0.183058 2.94684C0.300269 3.06405 0.45924 3.1299 0.625 3.1299ZM5.625 1.2549C5.87223 1.2549 6.1139 1.32821 6.31946 1.46557C6.52502 1.60292 6.68524 1.79814 6.77985 2.02655C6.87446 2.25496 6.89921 2.50629 6.85098 2.74877C6.80275 2.99124 6.6837 3.21397 6.50888 3.38879C6.33407 3.5636 6.11134 3.68265 5.86886 3.73088C5.62639 3.77912 5.37505 3.75436 5.14665 3.65975C4.91824 3.56514 4.72301 3.40493 4.58566 3.19936C4.44831 2.9938 4.375 2.75213 4.375 2.5049C4.375 2.17338 4.5067 1.85544 4.74112 1.62102C4.97554 1.3866 5.29348 1.2549 5.625 1.2549ZM14.375 9.3799H13.0469C12.9092 8.84214 12.5964 8.3655 12.1579 8.02513C11.7194 7.68475 11.1801 7.5 10.625 7.5C10.0699 7.5 9.53057 7.68475 9.09207 8.02513C8.65356 8.3655 8.34081 8.84214 8.20312 9.3799H0.625C0.45924 9.3799 0.300269 9.44575 0.183058 9.56296C0.0658481 9.68017 0 9.83914 0 10.0049C0 10.1707 0.0658481 10.3296 0.183058 10.4468C0.300269 10.5641 0.45924 10.6299 0.625 10.6299H8.20312C8.34081 11.1677 8.65356 11.6443 9.09207 11.9847C9.53057 12.3251 10.0699 12.5098 10.625 12.5098C11.1801 12.5098 11.7194 12.3251 12.1579 11.9847C12.5964 11.6443 12.9092 11.1677 13.0469 10.6299H14.375C14.5408 10.6299 14.6997 10.5641 14.8169 10.4468C14.9342 10.3296 15 10.1707 15 10.0049C15 9.83914 14.9342 9.68017 14.8169 9.56296C14.6997 9.44575 14.5408 9.3799 14.375 9.3799ZM10.625 11.2549C10.3778 11.2549 10.1361 11.1816 9.93054 11.0442C9.72498 10.9069 9.56476 10.7117 9.47015 10.4833C9.37554 10.2548 9.35079 10.0035 9.39902 9.76104C9.44725 9.51856 9.5663 9.29583 9.74112 9.12102C9.91593 8.9462 10.1387 8.82715 10.3811 8.77892C10.6236 8.73069 10.8749 8.75544 11.1034 8.85005C11.3318 8.94466 11.527 9.10488 11.6643 9.31044C11.8017 9.516 11.875 9.75768 11.875 10.0049C11.875 10.3364 11.7433 10.6544 11.5089 10.8888C11.2745 11.1232 10.9565 11.2549 10.625 11.2549Z" fill="#1C1E1F"/>
</svg>
