<?xml version="1.0" encoding="UTF-8"?>
<svg id="Layer_1" data-name="Layer 1" xmlns="http://www.w3.org/2000/svg" viewBox="0 0 60 60">
  <path d="M49.89,42.17c0,.39-.01.77-.04,1.14-.05.72-.15,1.41-.3,2.08s-.34,1.31-.58,1.92c-.33.86-.74,1.67-1.23,2.43-.39.6-.82,1.18-1.29,1.72-.53.61-1.12,1.18-1.75,1.71-.69.57-1.42,1.1-2.2,1.57s-1.6.89-2.45,1.26-1.83.71-2.78.98c-.86.24-1.74.44-2.64.59-.83.14-1.68.23-2.53.29-.5.03-1,.05-1.5.05s-1-.01-1.5-.04c-.92-.05-1.8-.14-2.64-.27-.75-.11-1.47-.25-2.16-.42-.92-.22-1.79-.49-2.62-.8-1.01-.38-1.95-.82-2.82-1.33-.54-.31-1.06-.65-1.55-1-.42-.3-.82-.62-1.21-.96-.43-.37-.83-.76-1.21-1.16-.27-.28-.53-.58-.77-.88-.32-.38-.61-.78-.89-1.18s-.54-.82-.78-1.24c-.31-.54-.59-1.09-.84-1.66-.2-.45-.38-.9-.55-1.37-.21-.58-.39-1.18-.55-1.78-.11-.41-.2-.82-.29-1.23-.17-.83-.29-1.68-.37-2.55-.03-.35-.05-.7-.07-1.05-.03-.76-.01-1.51.04-2.26.03-.39.07-.78.12-1.16.07-.52.15-1.04.25-1.55.13-.65.28-1.29.46-1.92.16-.55.33-1.09.52-1.62.22-.61.46-1.21.72-1.79.17-.39.36-.78.55-1.16.28-.55.57-1.08.87-1.6.2-.35.41-.69.63-1.02.24-.36.48-.72.72-1.06.33-.46.66-.89,1-1.31.39-.47.78-.91,1.17-1.32-.06.71-.07,1.45.02,2.16.11.92.38,1.81.88,2.58.22.34.5.66.82.92.42.35.9.61,1.41.77.66.2,1.36.21,2-.04.41-.16.75-.4,1.04-.69.45-.47.76-1.09.93-1.76.12-.47.18-.96.17-1.45s-.06-.98-.18-1.45c-.11-.43-.25-.86-.41-1.27-.19-.51-.42-1-.64-1.5-.15-.33-.3-.67-.44-1-.19-.45-.37-.9-.52-1.36-.07-.23-.14-.46-.2-.7-.16-.68-.24-1.37-.24-2.07,0-.58.06-1.15.17-1.72.09-.5.23-1,.39-1.49s.37-.98.61-1.45c.36-.72.79-1.41,1.27-2.05.16-.21.32-.41.49-.61.27-.31.55-.61.84-.89.53-.52,1.09-1,1.68-1.44.4-.3.81-.59,1.23-.86.54-.35,1.09-.67,1.66-.97.46-.25.94-.49,1.41-.71.51-.24,1.03-.47,1.54-.69-.23.27-.44.57-.63.88-.29.5-.52,1.03-.68,1.59-.2.7-.29,1.43-.28,2.15.01.61.1,1.21.27,1.79s.41,1.14.74,1.66c.14.22.29.44.46.64.35.44.75.85,1.17,1.22.36.31.73.61,1.12.9s.78.56,1.17.84c.36.25.72.5,1.07.76.43.31.85.64,1.25.98.26.23.52.47.76.72.4.42.77.87,1.11,1.34.19.27.37.54.54.82.32.53.59,1.09.82,1.66s.43,1.19.56,1.8.22,1.23.25,1.85,0,1.23-.08,1.84c-.1.67-.27,1.33-.51,1.97-.07.18-.15.37-.24.55-.17.37-.37.72-.58,1.07-.19.32-.38.63-.57.95-.25.41-.48.82-.69,1.25-.09.19-.17.38-.24.57-.18.5-.31,1.02-.34,1.54s.04,1.03.24,1.52c.11.26.27.51.47.72.31.34.72.6,1.15.73.48.15.99.13,1.44-.11.38-.2.65-.53.82-.93.2-.48.27-1.08.22-1.72s-.21-1.35-.47-2.05c.54.2,1.05.46,1.54.75.54.33,1.04.72,1.5,1.15.61.57,1.15,1.22,1.62,1.92.35.53.66,1.09.93,1.67.32.69.58,1.41.77,2.15.18.66.3,1.34.38,2.02.06.49.08.99.08,1.48Z" style="fill: #0f4cd0;"/>
  <path d="M41.16,47.82c-.23.46-.49.9-.78,1.32-.14.21-.29.42-.45.62-.17.21-.34.42-.52.62-.25.28-.51.55-.78.81-.23.21-.46.42-.71.62-.31.25-.62.49-.95.71-.3.21-.61.4-.93.58s-.62.34-.95.49c-.24.11-.48.22-.73.32-.11.04-.21.09-.32.13-.2.08-.4.15-.6.21-.49.16-1,.3-1.5.4-.4.08-.8.13-1.2.17-.36.03-.72.05-1.08.05-.27,0-.53,0-.79-.03-.35-.02-.7-.06-1.05-.12-.27-.04-.53-.09-.79-.16-.14-.03-.29-.07-.43-.11-.21-.06-.42-.12-.63-.19-.13-.04-.26-.09-.4-.14-.23-.09-.46-.18-.68-.28-.15-.07-.31-.14-.46-.22s-.29-.15-.43-.23c-.26-.15-.53-.31-.79-.49-.13-.09-.27-.18-.4-.28-.29-.21-.57-.44-.84-.69-.23-.21-.46-.44-.68-.68s-.42-.48-.63-.74-.41-.55-.6-.84c-.18-.27-.35-.56-.51-.86-.1-.19-.21-.39-.31-.59-.16-.32-.3-.65-.44-1-.06-.15-.12-.3-.17-.45-.16-.43-.29-.89-.39-1.36s-.17-.95-.21-1.45c-.03-.38-.05-.77-.05-1.17,0-.47.02-.94.07-1.41.03-.31.07-.61.11-.91.03-.21.07-.41.11-.61.05-.25.1-.5.17-.75s.13-.48.2-.72c.05-.15.09-.3.14-.45.1-.29.2-.57.32-.85.07-.16.14-.32.21-.48.08-.17.16-.34.25-.5.16-.3.33-.59.51-.87,0,.25.05.5.14.73s.21.44.36.64c.2.26.46.49.74.67.24.15.5.27.77.36.36.11.74.16,1.12.12.23-.02.46-.07.68-.14s.43-.16.63-.27c.4-.22.77-.51,1.1-.85.29-.3.54-.65.74-1.01.08-.14.15-.28.21-.42.15-.33.27-.68.36-1.03.1-.38.18-.78.23-1.17.07-.55.1-1.12.11-1.68,0-.18,0-.36,0-.54,0-.19,0-.38,0-.57,0-.38-.02-.76-.02-1.15,0-.29,0-.57,0-.86,0-.43.03-.85.08-1.27.02-.22.05-.44.09-.65.09-.52.26-1.15.51-1.8.04-.1.08-.21.12-.31.16-.38.35-.77.56-1.15s.45-.73.71-1.07c.23-.3.49-.58.77-.82-.15.29-.27.59-.37.88s-.17.59-.21.89c-.06.37-.07.74-.06,1.11.01.31.05.62.11.93.08.41.19.82.34,1.21.13.35.27.69.44,1.03.18.37.38.74.59,1.09.11.18.22.36.33.54.23.37.48.71.73,1.02s.53.63.79.94c.2.23.39.45.59.69.24.29.47.59.69.93s.43.69.62,1.09c.18.37.34.77.5,1.22.11.32.21.66.3,1.03.22.89.22,1.77.22,2.57,0,.2,0,.4,0,.6,0,.33.02.65.06.94s.11.57.23.81c.19.4.5.72,1.01.95.15.07.32.13.51.18.35.09.68.1,1,.05.37-.06.72-.22,1.03-.43.37-.25.69-.59.95-.96s.45-.78.56-1.16c.08-.29.12-.58.1-.83.2.44.37.91.52,1.4.07.23.13.47.18.71.07.29.12.59.17.89.07.43.11.86.13,1.3.02.34.02.69,0,1.03-.02.62-.09,1.23-.21,1.83-.11.56-.27,1.11-.47,1.62-.1.25-.2.48-.32.71Z" style="fill: #fff;"/>
</svg>