<svg width="40" height="40" viewBox="0 0 40 40" fill="none" xmlns="http://www.w3.org/2000/svg">
<path d="M22.3367 0H34.6361C37.1397 9.86678e-05 38.9071 3.66723 38.8847 6.19411V24.3074C38.8847 26.1187 37.6997 28.489 36.2462 29.5848L23.9468 38.7757C21.7777 40.4081 18.2222 40.4081 16.0531 38.7757L3.75408 29.5848C2.30056 28.5114 1.11525 26.1188 1.11523 24.3074V6.19411C1.11526 3.66719 2.99934 0 5.40891 0H17.708H22.3367Z" fill="#1750CF"/>
<path d="M22.3367 0H34.6361C37.1397 9.86678e-05 38.9071 3.66723 38.8847 6.19411V24.3074C38.8847 26.1187 37.6997 28.489 36.2462 29.5848L23.9468 38.7757C21.7777 40.4081 18.2222 40.4081 16.0531 38.7757L3.75408 29.5848C2.30056 28.5114 1.11525 26.1188 1.11523 24.3074V6.19411C1.11526 3.66719 2.99934 0 5.40891 0H17.708H22.3367Z" fill="url(#paint0_linear_1_268267)"/>
<path d="M30.4995 17.0005C30.5019 17.3081 30.4084 17.6088 30.232 17.8609C30.0555 18.1129 29.805 18.3037 29.5151 18.4067L23.5676 20.5695L21.4058 26.5161C21.2992 26.8032 21.1073 27.0508 20.856 27.2256C20.6046 27.4004 20.3057 27.4941 19.9995 27.4941C19.6933 27.4941 19.3944 27.4004 19.1431 27.2256C18.8917 27.0508 18.6998 26.8032 18.5933 26.5161L16.4314 20.5686L10.4839 18.4067C10.1968 18.3002 9.94924 18.1083 9.7744 17.8569C9.59957 17.6056 9.50586 17.3067 9.50586 17.0005C9.50586 16.6943 9.59957 16.3954 9.7744 16.144C9.94924 15.8926 10.1968 15.7008 10.4839 15.5942L16.4314 13.4324L18.5933 7.48486C18.6998 7.19779 18.8917 6.95021 19.1431 6.77538C19.3944 6.60055 19.6933 6.50684 19.9995 6.50684C20.3057 6.50684 20.6046 6.60055 20.856 6.77538C21.1073 6.95021 21.2992 7.19779 21.4058 7.48486L23.5686 13.4324L29.5151 15.5942C29.805 15.6973 30.0555 15.8881 30.232 16.1401C30.4084 16.3921 30.5019 16.6929 30.4995 17.0005Z" fill="white"/>
<defs>
<linearGradient id="paint0_linear_1_268267" x1="1.11639" y1="39.9567" x2="44.4808" y2="7.37399" gradientUnits="userSpaceOnUse">
<stop stop-color="#3D10BD"/>
<stop offset="1" stop-color="#62BDFF"/>
</linearGradient>
</defs>
</svg>
