<svg width="21" height="18" viewBox="0 0 21 18" fill="none" xmlns="http://www.w3.org/2000/svg">
<path d="M8.37891 5.22168C9.54605 5.22179 10.6656 5.68479 11.4912 6.50977C11.9141 6.93385 12.2461 7.43971 12.4678 7.99609C12.6893 8.55221 12.7965 9.14767 12.7812 9.74609C12.781 9.7541 12.7773 9.76208 12.7715 9.76758C12.7657 9.77295 12.7579 9.77553 12.75 9.77539C12.742 9.77516 12.734 9.77146 12.7285 9.76562C12.7231 9.7598 12.7205 9.75209 12.7207 9.74414L12.7188 9.74316C12.7443 8.87371 12.5093 8.01685 12.042 7.2832C11.5742 6.54889 10.8964 5.9721 10.0967 5.62793C9.29686 5.28376 8.41156 5.18738 7.55664 5.35254C6.70236 5.51765 5.91754 5.9361 5.30371 6.55273L2.05176 9.81055C1.44505 10.4175 1.03178 11.1905 0.864258 12.0322C0.696769 12.874 0.78213 13.747 1.11035 14.54C1.43856 15.3331 1.99466 16.011 2.70801 16.4883C3.42071 16.9651 4.25877 17.2195 5.11621 17.2207V17.2217L5.11719 17.2207L5.11914 17.2217V17.2207C5.69092 17.2226 6.2578 17.1112 6.78613 16.8926C7.3144 16.6739 7.79411 16.3527 8.19727 15.9473L9.18457 14.96C9.1893 14.9575 9.19381 14.9548 9.19922 14.9551C9.20664 14.9555 9.21353 14.9586 9.21875 14.9639C9.22394 14.9692 9.22724 14.976 9.22754 14.9834C9.22774 14.9888 9.22515 14.9934 9.22266 14.998L8.22754 15.9932C7.82008 16.4028 7.33557 16.7282 6.80176 16.9492C6.26793 17.1703 5.69497 17.2829 5.11719 17.2812H5.11621C4.24624 17.2804 3.39585 17.022 2.67285 16.5381C1.94985 16.0542 1.3862 15.3665 1.05371 14.5625C0.721256 13.7585 0.634651 12.8737 0.804688 12.0205C0.974768 11.1672 1.39443 10.3837 2.00977 9.76855V9.76758L5.26465 6.50977L5.26562 6.51074C6.09137 5.68535 7.21137 5.22168 8.37891 5.22168ZM15.877 0.719727C16.4553 0.719727 17.0282 0.834276 17.5625 1.05566C18.0967 1.27699 18.5824 1.60087 18.9912 2.00977C19.4149 2.43458 19.748 2.9415 19.9697 3.49902C20.1913 4.05615 20.2973 4.65263 20.2812 5.25195C20.2489 6.37335 19.7871 7.43983 18.9922 8.23145L18.9912 8.23242L15.7334 11.4922L15.7324 11.4932C15.3251 11.9027 14.8403 12.2282 14.3066 12.4492C13.773 12.6702 13.2006 12.7829 12.623 12.7812H12.6172C12.0291 12.7808 11.4469 12.6627 10.9053 12.4336C10.3636 12.2044 9.87275 11.8691 9.46289 11.4473C9.05308 11.0255 8.73204 10.5255 8.51855 9.97754C8.30513 9.42969 8.20429 8.84456 8.2207 8.25684C8.22093 8.24887 8.22374 8.24086 8.22949 8.23535C8.23523 8.22993 8.24309 8.22645 8.25098 8.22656C8.25894 8.22679 8.26695 8.23058 8.27246 8.23633C8.27789 8.24207 8.28137 8.24991 8.28125 8.25781C8.26488 8.83768 8.36468 9.4155 8.5752 9.95605C8.78571 10.4965 9.10268 10.9893 9.50684 11.4053C9.91103 11.8213 10.3945 12.1519 10.9287 12.3779C11.4624 12.6037 12.0358 12.7201 12.6152 12.7207V12.7217L12.6162 12.7207L12.6172 12.7217V12.7207C13.1874 12.722 13.7524 12.6108 14.2793 12.3926C14.8066 12.1742 15.2849 11.8528 15.6875 11.4482L18.9443 8.19238L18.9482 8.18945C19.754 7.37357 20.2037 6.27166 20.2002 5.125C20.1966 3.97826 19.7396 2.87923 18.9287 2.06836C18.1178 1.25749 17.0188 0.800463 15.8721 0.796875C14.7254 0.79335 13.6235 1.2431 12.8076 2.04883L12.8047 2.05273L11.7852 3.07129C11.7796 3.07601 11.7729 3.0792 11.7656 3.0791C11.7579 3.07897 11.7506 3.07574 11.7451 3.07031C11.7397 3.06487 11.7365 3.0575 11.7363 3.0498C11.7362 3.04247 11.7384 3.03483 11.7432 3.0293L12.7627 2.01074C13.1715 1.60176 13.6572 1.27705 14.1914 1.05566C14.7257 0.834295 15.2986 0.719745 15.877 0.719727Z" fill="#4E5055" stroke="#4E5055" stroke-width="1.44"/>
</svg>
