<svg width="17" height="23" viewBox="0 0 17 23" fill="none" xmlns="http://www.w3.org/2000/svg">
<path d="M11.7266 15.0674C10.6502 15.6175 9.45884 15.9053 8.25 15.9053C7.04116 15.9053 5.84984 15.6175 4.77344 15.0674L3.90039 14.6221V21.5127L4.76855 21.0781L8.18164 19.3711C8.20246 19.3607 8.22573 19.3555 8.24902 19.3555C8.26057 19.3555 8.27204 19.3568 8.2832 19.3594L8.31641 19.3711L11.7314 21.0781L12.5996 21.5127V14.6221L11.7266 15.0674ZM9.68359 1.0459C8.25795 0.762393 6.78042 0.908595 5.4375 1.46484C4.09446 2.02115 2.9463 2.96317 2.13867 4.17188C1.33118 5.38051 0.900394 6.80132 0.900391 8.25488V8.25586C0.90263 10.2042 1.67696 12.0725 3.05469 13.4502C4.43241 14.8279 6.30063 15.6022 8.24902 15.6045H8.25C9.70357 15.6045 11.1244 15.1737 12.333 14.3662C13.5417 13.5586 14.4837 12.4104 15.04 11.0674C15.5963 9.72446 15.7425 8.24693 15.459 6.82129C15.1754 5.39553 14.4752 4.08553 13.4473 3.05762C12.4194 2.02971 11.1094 1.3295 9.68359 1.0459ZM6.4707 3.95898C7.32035 3.60707 8.25525 3.51492 9.15723 3.69434C10.0592 3.87377 10.8878 4.3165 11.5381 4.9668C12.1884 5.61709 12.6311 6.44568 12.8105 7.34766C12.99 8.24963 12.8978 9.18454 12.5459 10.0342C12.194 10.8839 11.5977 11.6101 10.833 12.1211C10.0684 12.632 9.1696 12.9043 8.25 12.9043C7.01721 12.9028 5.83559 12.4127 4.96387 11.541C4.09214 10.6693 3.60109 9.48768 3.59961 8.25488C3.59961 7.33529 3.87293 6.43651 4.38379 5.67188C4.89474 4.90719 5.62103 4.31093 6.4707 3.95898ZM8.25 3.90527C7.09631 3.90527 5.98961 4.36293 5.17383 5.17871C4.35805 5.99449 3.90039 7.1012 3.90039 8.25488C3.90039 9.11523 4.15483 9.95652 4.63281 10.6719C5.11071 11.3871 5.7903 11.9442 6.58496 12.2734C7.37981 12.6027 8.25483 12.6893 9.09863 12.5215C9.94245 12.3536 10.7178 11.9394 11.3262 11.3311C11.9345 10.7227 12.3488 9.94733 12.5166 9.10352C12.6844 8.25972 12.5978 7.38468 12.2686 6.58984C11.9393 5.79519 11.3822 5.11559 10.667 4.6377C9.95164 4.15971 9.11035 3.90527 8.25 3.90527ZM3.59961 14.3311L3.38184 14.1514C2.38739 13.331 1.61657 12.2723 1.14062 11.0742C0.664687 9.87609 0.49873 8.57703 0.65918 7.29785C0.819628 6.01871 1.30152 4.80126 2.05859 3.75781C2.8157 2.71435 3.82395 1.87847 4.99023 1.3291C6.15646 0.779804 7.44291 0.534476 8.72949 0.615234C10.016 0.69603 11.2613 1.10025 12.3496 1.79102C13.438 2.48191 14.3344 3.43743 14.9551 4.56738C15.5756 5.69724 15.9012 6.96583 15.9004 8.25488L15.8887 8.67676C15.8346 9.65888 15.5907 10.6227 15.1699 11.5146C14.689 12.534 13.9882 13.4339 13.1182 14.1504L12.9004 14.3311V21.7549C12.9004 21.7947 12.8846 21.8332 12.8564 21.8613C12.8283 21.8895 12.7898 21.9053 12.75 21.9053H12.7432C12.7313 21.9054 12.7195 21.9039 12.708 21.9014L12.6738 21.8896L8.51855 19.8115L8.25 19.6777L7.98242 19.8115L3.81738 21.8896C3.79451 21.9011 3.76872 21.9064 3.74316 21.9053C3.71765 21.9041 3.69263 21.8962 3.6709 21.8828C3.64925 21.8694 3.63154 21.8504 3.61914 21.8281C3.60675 21.8058 3.59959 21.7804 3.59961 21.7549V14.3311Z" fill="#1053E5" stroke="#1053E5" stroke-width="1.2"/>
</svg>
