<svg width="21" height="21" viewBox="0 0 21 21" fill="none" xmlns="http://www.w3.org/2000/svg">
<path d="M7.125 15.7803C6.76009 15.7803 6.40302 15.8881 6.09961 16.0908C5.79634 16.2935 5.56052 16.582 5.4209 16.9189C5.28125 17.2561 5.24424 17.6275 5.31543 17.9854C5.38667 18.3431 5.56238 18.6718 5.82031 18.9297C6.07825 19.1876 6.4069 19.3633 6.76465 19.4346C7.12254 19.5058 7.49393 19.4687 7.83105 19.3291C8.16804 19.1895 8.45649 18.9537 8.65918 18.6504C8.86191 18.347 8.96973 17.9899 8.96973 17.625L8.96094 17.4424C8.91895 17.0201 8.73238 16.623 8.42969 16.3203C8.08368 15.9743 7.61433 15.7803 7.125 15.7803ZM16.125 15.7803C15.7601 15.7803 15.403 15.8881 15.0996 16.0908C14.7963 16.2935 14.5605 16.582 14.4209 16.9189C14.2813 17.2561 14.2442 17.6275 14.3154 17.9854C14.3867 18.3431 14.5624 18.6718 14.8203 18.9297C15.0782 19.1876 15.4069 19.3633 15.7646 19.4346C16.1225 19.5058 16.4939 19.4687 16.8311 19.3291C17.168 19.1895 17.4565 18.9537 17.6592 18.6504C17.8619 18.347 17.9697 17.9899 17.9697 17.625C17.9697 17.1357 17.7757 16.6663 17.4297 16.3203C17.0837 15.9743 16.6143 15.7803 16.125 15.7803ZM3.94043 5.37891L5.03125 11.3789L5.13867 11.9697H16.8848V11.9688C17.2289 11.9693 17.5625 11.85 17.8271 11.6299C18.0592 11.4368 18.2254 11.1778 18.3047 10.8887L18.333 10.7627L19.3096 5.37793L19.4629 4.53027H3.78613L3.94043 5.37891ZM14.2197 17.624C14.2193 17.3426 14.2821 17.0645 14.4033 16.8105L14.8955 15.7803H8.35645L8.8457 16.8096C8.99664 17.1272 9.057 17.4804 9.01953 17.8301C8.98202 18.1799 8.84783 18.5125 8.63281 18.791C8.4178 19.0695 8.12973 19.2833 7.80078 19.4082C7.47197 19.5329 7.11502 19.5647 6.76953 19.499C6.42389 19.4333 6.10296 19.273 5.84277 19.0361C5.58257 18.7993 5.39274 18.4942 5.29492 18.1562C5.19725 17.8184 5.19564 17.4601 5.28906 17.1211C5.38253 16.7819 5.56809 16.4755 5.8252 16.2354L6.32715 15.7656L5.88184 15.2422C5.70746 15.037 5.59001 14.7894 5.54199 14.5244V14.5234L3.14551 1.37109L3.03809 0.780273H0.75C0.742043 0.780273 0.734142 0.77711 0.728516 0.771484C0.72289 0.765858 0.719727 0.757957 0.719727 0.75L0.728516 0.728516C0.734142 0.72289 0.742043 0.719727 0.75 0.719727H3.06836C3.07537 0.719734 3.0825 0.722067 3.08789 0.726562C3.09328 0.731065 3.0964 0.738204 3.09766 0.745117L3.66797 3.87891L3.77539 4.46973H19.5C19.5043 4.46973 19.5088 4.47085 19.5127 4.47266C19.5167 4.47451 19.5206 4.47711 19.5234 4.48047L19.5254 4.4834C19.5281 4.48671 19.5301 4.49096 19.5312 4.49512C19.5321 4.49831 19.5325 4.5016 19.5322 4.50488L18.3926 10.7734C18.3285 11.126 18.1422 11.4452 17.8672 11.6748C17.5922 11.9043 17.2449 12.0302 16.8867 12.0303H5.14941L5.30371 12.8789L5.60059 14.5127C5.66212 14.8514 5.8412 15.1583 6.10547 15.3789C6.36963 15.5993 6.70285 15.7196 7.04688 15.7197H16.125C16.5018 15.7197 16.8703 15.8317 17.1836 16.041C17.4967 16.2502 17.7406 16.5477 17.8848 16.8955C18.029 17.2436 18.0667 17.6275 17.9932 17.9971C17.9196 18.3664 17.738 18.7054 17.4717 18.9717C17.2054 19.238 16.8664 19.4196 16.4971 19.4932C16.1275 19.5667 15.7436 19.529 15.3955 19.3848C15.0477 19.2406 14.7502 18.9967 14.541 18.6836C14.3317 18.3703 14.2197 18.0018 14.2197 17.625V17.624Z" fill="#1053E5" stroke="#1053E5" stroke-width="1.44"/>
</svg>
