<svg width="40" height="40" viewBox="0 0 40 40" fill="none" xmlns="http://www.w3.org/2000/svg">
<path d="M22.3367 0H34.6361C37.1397 9.86678e-05 38.9071 3.66723 38.8847 6.19411V24.3074C38.8847 26.1187 37.6997 28.489 36.2462 29.5848L23.9468 38.7757C21.7777 40.4081 18.2222 40.4081 16.0531 38.7757L3.75408 29.5848C2.30056 28.5114 1.11525 26.1188 1.11523 24.3074V6.19411C1.11526 3.66719 2.99934 0 5.40891 0H17.708H22.3367Z" fill="#1750CF"/>
<path d="M22.3367 0H34.6361C37.1397 9.86678e-05 38.9071 3.66723 38.8847 6.19411V24.3074C38.8847 26.1187 37.6997 28.489 36.2462 29.5848L23.9468 38.7757C21.7777 40.4081 18.2222 40.4081 16.0531 38.7757L3.75408 29.5848C2.30056 28.5114 1.11525 26.1188 1.11523 24.3074V6.19411C1.11526 3.66719 2.99934 0 5.40891 0H17.708H22.3367Z" fill="url(#paint0_linear_1_268236)"/>
<path d="M29.75 12.5171V21.4833C29.7494 21.7519 29.6767 22.0153 29.5395 22.2462C29.4023 22.4771 29.2056 22.6669 28.97 22.7958L20.72 27.3117C20.4996 27.4335 20.2518 27.4974 20 27.4974C19.7482 27.4974 19.5004 27.4335 19.28 27.3117L11.03 22.7958C10.7944 22.6669 10.5977 22.4771 10.4605 22.2462C10.3233 22.0153 10.2506 21.7519 10.25 21.4833V12.5171C10.2506 12.2485 10.3233 11.985 10.4605 11.7541C10.5977 11.5233 10.7944 11.3335 11.03 11.2046L19.28 6.68862C19.5004 6.56682 19.7482 6.50293 20 6.50293C20.2518 6.50293 20.4996 6.56682 20.72 6.68862L28.97 11.2046C29.2056 11.3335 29.4023 11.5233 29.5395 11.7541C29.6767 11.985 29.7494 12.2485 29.75 12.5171Z" fill="white"/>
<defs>
<linearGradient id="paint0_linear_1_268236" x1="1.11639" y1="39.9567" x2="44.4808" y2="7.37399" gradientUnits="userSpaceOnUse">
<stop stop-color="#3D10BD"/>
<stop offset="1" stop-color="#62BDFF"/>
</linearGradient>
</defs>
</svg>
