<svg width="13" height="13" viewBox="0 0 13 13" fill="none" xmlns="http://www.w3.org/2000/svg">
<path d="M6.5 0.0419922C8.2123 0.0438114 9.85367 0.724769 11.0645 1.93555C12.2752 3.14633 12.9562 4.7877 12.958 6.5C12.958 7.77725 12.5797 9.02587 11.8701 10.0879C11.1605 11.1499 10.1517 11.978 8.97168 12.4668C7.79162 12.9556 6.49299 13.0831 5.24023 12.834C3.98744 12.5848 2.83681 11.9696 1.93359 11.0664C1.03038 10.1632 0.415212 9.01256 0.166016 7.75977C-0.0831439 6.50701 0.0444051 5.20838 0.533203 4.02832C1.02203 2.84827 1.85008 1.83951 2.91211 1.12988C3.90772 0.464697 5.06731 0.0901295 6.26074 0.0458984L6.5 0.0419922ZM8.62109 1.37988C7.60853 0.960465 6.49388 0.850663 5.41895 1.06445C4.34397 1.27828 3.35607 1.80604 2.58105 2.58105C1.80604 3.35607 1.27828 4.34397 1.06445 5.41895C0.850663 6.49388 0.960465 7.60853 1.37988 8.62109C1.79928 9.63347 2.50982 10.4986 3.4209 11.1074C4.33222 11.7163 5.40396 12.042 6.5 12.042C7.96922 12.0403 9.3781 11.4559 10.417 10.417C11.4559 9.3781 12.0403 7.96922 12.042 6.5C12.042 5.40396 11.7163 4.33222 11.1074 3.4209C10.4986 2.50982 9.63347 1.79928 8.62109 1.37988ZM6.5 2.54199C6.62156 2.54199 6.73826 2.58983 6.82422 2.67578C6.91017 2.76174 6.95801 2.87844 6.95801 3V3.54199H8C8.12156 3.54199 8.23826 3.58983 8.32422 3.67578C8.41017 3.76174 8.45801 3.87844 8.45801 4C8.45801 4.12156 8.41017 4.23826 8.32422 4.32422C8.23826 4.41017 8.12156 4.45801 8 4.45801H5.75C5.54004 4.45801 5.3389 4.54196 5.19043 4.69043C5.04196 4.8389 4.95801 5.04004 4.95801 5.25C4.95801 5.45996 5.04196 5.6611 5.19043 5.80957C5.3389 5.95804 5.54004 6.04199 5.75 6.04199H7.25C7.70308 6.04199 8.13763 6.22162 8.45801 6.54199C8.77838 6.86237 8.95801 7.29692 8.95801 7.75C8.95801 8.20308 8.77838 8.63763 8.45801 8.95801C8.13763 9.27838 7.70308 9.45801 7.25 9.45801H6.95801V10C6.95801 10.1216 6.91017 10.2383 6.82422 10.3242C6.73826 10.4102 6.62156 10.458 6.5 10.458C6.37844 10.458 6.26173 10.4102 6.17578 10.3242C6.08983 10.2383 6.04199 10.1216 6.04199 10V9.45801H5C4.87844 9.45801 4.76173 9.41017 4.67578 9.32422C4.58983 9.23826 4.54199 9.12156 4.54199 9C4.54199 8.87844 4.58983 8.76174 4.67578 8.67578C4.76173 8.58983 4.87844 8.54199 5 8.54199H7.25C7.45996 8.54199 7.6611 8.45804 7.80957 8.30957C7.95804 8.1611 8.04199 7.95996 8.04199 7.75C8.04199 7.54004 7.95804 7.3389 7.80957 7.19043C7.6611 7.04196 7.45996 6.95801 7.25 6.95801H5.75C5.29692 6.95801 4.86237 6.77838 4.54199 6.45801C4.22162 6.13763 4.04199 5.70308 4.04199 5.25C4.04199 4.79692 4.22162 4.36237 4.54199 4.04199C4.86237 3.72162 5.29692 3.54199 5.75 3.54199H6.04199V3C6.04199 2.87844 6.08983 2.76174 6.17578 2.67578C6.26173 2.58983 6.37844 2.54199 6.5 2.54199Z" fill="#1053E5" stroke="#1053E5" stroke-width="0.0833333"/>
</svg>
