<svg width="20" height="19" viewBox="0 0 20 19" fill="none" xmlns="http://www.w3.org/2000/svg">
<path d="M9.75977 0.719727C11.0802 0.719805 12.3638 1.1538 13.4141 1.9541C14.4643 2.75446 15.2229 3.87722 15.5732 5.15039C15.9235 6.4236 15.8466 7.77696 15.3535 9.00195C14.8604 10.2269 13.9784 11.2562 12.8438 11.9316L11.4824 12.7422L12.9883 13.2344C15.3846 14.0174 17.4446 15.6706 18.7852 17.9883L18.7891 17.9961L18.7939 18.0039C18.796 18.0073 18.7982 18.0117 18.7988 18.0156C18.7993 18.0194 18.7988 18.0236 18.7979 18.0273C18.7969 18.0311 18.7953 18.035 18.793 18.0381C18.7906 18.0412 18.7876 18.0439 18.7842 18.0459C18.7807 18.0479 18.7764 18.0493 18.7725 18.0498C18.7686 18.0503 18.7645 18.0499 18.7607 18.0488C18.7569 18.0477 18.7531 18.0455 18.75 18.043C18.7469 18.0405 18.7441 18.0376 18.7422 18.0342L18.7383 18.0254L18.7334 18.0166L18.5518 17.7139C16.6313 14.626 13.3682 12.7823 9.75977 12.7822C6.03488 12.7822 2.67817 14.747 0.786133 18.0166L0.776367 18.0342C0.774464 18.0376 0.771637 18.0405 0.768555 18.043C0.765434 18.0455 0.761648 18.0477 0.757812 18.0488C0.754076 18.0498 0.749943 18.0503 0.746094 18.0498C0.742307 18.0493 0.738677 18.0478 0.735352 18.0459C0.732045 18.044 0.728921 18.0411 0.726562 18.0381C0.724195 18.035 0.721699 18.0311 0.720703 18.0273C0.719753 18.0236 0.720177 18.0194 0.720703 18.0156C0.721305 18.0117 0.722515 18.0073 0.724609 18.0039L0.734375 17.9883C2.07498 15.6697 4.13418 14.0165 6.53027 13.2344L8.03711 12.7422L6.6748 11.9316C5.54027 11.2562 4.65913 10.2268 4.16602 9.00195C3.67293 7.77696 3.59502 6.4236 3.94531 5.15039C4.29558 3.87726 5.05428 2.75446 6.10449 1.9541C7.1548 1.15373 8.43925 0.719727 9.75977 0.719727ZM10.9238 0.897461C9.76583 0.667167 8.56541 0.785478 7.47461 1.2373C6.38397 1.68912 5.45183 2.45403 4.7959 3.43555C4.13991 4.41731 3.78906 5.57218 3.78906 6.75293L3.79688 7.04883C3.87143 8.52381 4.49081 9.92342 5.54004 10.9727C6.65908 12.0915 8.17634 12.721 9.75879 12.7227H9.75977C10.9403 12.7226 12.0945 12.3727 13.0762 11.7168C14.0579 11.0608 14.8235 10.128 15.2754 9.03711C15.7272 7.94629 15.8446 6.74589 15.6143 5.58789C15.3839 4.42985 14.8154 3.36616 13.9805 2.53125C13.1456 1.6964 12.0818 1.1278 10.9238 0.897461Z" fill="#4E5055" stroke="#4E5055" stroke-width="1.44"/>
</svg>
