<svg width="24" height="16" viewBox="0 0 24 16" fill="none" xmlns="http://www.w3.org/2000/svg">
<path d="M7.67188 0.719727C8.72485 0.719743 9.75021 1.05891 10.5957 1.68652C11.4411 2.31414 12.0624 3.19725 12.3672 4.20508C12.672 5.21294 12.644 6.29226 12.2881 7.2832C11.9321 8.2742 11.2662 9.12447 10.3896 9.70801L9.21094 10.4932L10.54 10.9824C12.2096 11.5978 13.6364 12.7357 14.6074 14.2266V14.2275C14.6115 14.2341 14.613 14.2424 14.6113 14.25C14.6096 14.2575 14.6051 14.2643 14.5986 14.2686C14.5921 14.2728 14.5838 14.274 14.5762 14.2725C14.5685 14.2709 14.561 14.2663 14.5566 14.2598C13.8108 13.1163 12.7918 12.1765 11.5918 11.5254C10.3884 10.8724 9.04103 10.5303 7.67188 10.5303C6.30274 10.5303 4.95537 10.8725 3.75195 11.5254C2.54846 12.1784 1.52664 13.1216 0.780273 14.2695L0.775391 14.2773C0.773291 14.2807 0.770778 14.2839 0.767578 14.2861C0.764415 14.2883 0.7606 14.2902 0.756836 14.291C0.752956 14.2919 0.748055 14.2917 0.744141 14.291C0.74037 14.2903 0.736623 14.2882 0.733398 14.2861C0.730294 14.2841 0.727725 14.2814 0.725586 14.2783C0.723419 14.2751 0.721515 14.2713 0.720703 14.2676C0.719939 14.2638 0.720006 14.2596 0.720703 14.2559C0.721477 14.252 0.723366 14.2474 0.725586 14.2441L0.731445 14.2344C1.70256 12.7397 3.13126 11.5988 4.80371 10.9824L6.13281 10.4932L4.95312 9.70801C4.07675 9.12447 3.41162 8.27408 3.05566 7.2832C2.69969 6.29223 2.67176 5.21297 2.97656 4.20508C3.28137 3.19721 3.9026 2.31415 4.74805 1.68652C5.59356 1.05889 6.61887 0.719727 7.67188 0.719727ZM14.0996 1.07227C15.2256 0.623201 16.478 0.607535 17.6152 1.02734C18.7525 1.44721 19.6947 2.2727 20.2588 3.3457C20.8229 4.41878 20.9689 5.66304 20.6699 6.83789C20.371 8.01262 19.6479 9.03509 18.6396 9.70801L17.4629 10.4932L18.79 10.9824C20.4625 11.5988 21.8912 12.7397 22.8623 14.2344V14.2363C22.8666 14.243 22.8688 14.251 22.8672 14.2588L22.8545 14.2773C22.8479 14.2816 22.8397 14.2828 22.832 14.2812C22.8242 14.2796 22.8168 14.2752 22.8125 14.2686C22.067 13.1204 21.0462 12.177 19.8428 11.5244C18.6391 10.8717 17.2911 10.5306 15.9219 10.5322L15.9004 10.5234C15.8948 10.5178 15.8916 10.5099 15.8916 10.502C15.8917 10.4942 15.895 10.487 15.9004 10.4814C15.906 10.4758 15.9139 10.4727 15.9219 10.4727H15.9229C16.6361 10.4719 17.3403 10.3132 17.9854 10.0088C18.6306 9.70428 19.2012 9.26126 19.6553 8.71094C20.1093 8.16062 20.4359 7.51649 20.6123 6.8252C20.7887 6.13384 20.8107 5.41157 20.6758 4.71094C20.5409 4.0105 20.2524 3.34877 19.832 2.77246C19.4116 2.19606 18.8691 1.71937 18.2432 1.37695C17.6172 1.03453 16.9231 0.834193 16.2109 0.791016C15.4988 0.747868 14.7857 0.862679 14.123 1.12695L14.1133 1.13086L14.1045 1.13477C14.1009 1.13633 14.0967 1.13764 14.0928 1.1377C14.0888 1.13773 14.0847 1.13628 14.0811 1.13477C14.0773 1.13324 14.0741 1.13078 14.0713 1.12793C14.0685 1.1251 14.0659 1.12185 14.0645 1.11816C14.063 1.11451 14.0624 1.11036 14.0625 1.10645C14.0626 1.10253 14.0629 1.09831 14.0645 1.09473C14.0661 1.09112 14.0694 1.08767 14.0723 1.08496C14.0751 1.08242 14.0785 1.08042 14.082 1.0791L14.0908 1.07617L14.0996 1.07227ZM8.61719 0.875C7.67735 0.688055 6.70269 0.784661 5.81738 1.15137C4.93227 1.51808 4.17585 2.13895 3.64355 2.93555C3.11124 3.73221 2.82721 4.66882 2.82715 5.62695V5.62793C2.82861 6.91218 3.339 8.14363 4.24707 9.05176C5.1552 9.95988 6.38662 10.4712 7.6709 10.4727H7.67188C8.6301 10.4726 9.56655 10.1876 10.3633 9.65527C11.16 9.1229 11.7817 8.36674 12.1484 7.48145C12.5151 6.59616 12.6108 5.62144 12.4238 4.68164C12.2368 3.74195 11.7751 2.87866 11.0977 2.20117C10.4201 1.52368 9.55693 1.06195 8.61719 0.875Z" fill="#1053E5" stroke="#1053E5" stroke-width="1.44"/>
</svg>
