<svg width="40" height="40" viewBox="0 0 40 40" fill="none" xmlns="http://www.w3.org/2000/svg">
<path d="M22.3367 0H34.6361C37.1397 9.86678e-05 38.9071 3.66723 38.8847 6.19411V24.3074C38.8847 26.1187 37.6997 28.489 36.2462 29.5848L23.9468 38.7757C21.7777 40.4081 18.2222 40.4081 16.0531 38.7757L3.75408 29.5848C2.30056 28.5114 1.11525 26.1188 1.11523 24.3074V6.19411C1.11526 3.66719 2.99934 0 5.40891 0H17.708H22.3367Z" fill="#1750CF"/>
<path d="M22.3367 0H34.6361C37.1397 9.86678e-05 38.9071 3.66723 38.8847 6.19411V24.3074C38.8847 26.1187 37.6997 28.489 36.2462 29.5848L23.9468 38.7757C21.7777 40.4081 18.2222 40.4081 16.0531 38.7757L3.75408 29.5848C2.30056 28.5114 1.11525 26.1188 1.11523 24.3074V6.19411C1.11526 3.66719 2.99934 0 5.40891 0H17.708H22.3367Z" fill="url(#paint0_linear_1_268328)"/>
<path d="M29.9646 15.7671L25.7459 19.4074L27.0312 24.8515C27.1021 25.147 27.0838 25.4569 26.9787 25.7421C26.8736 26.0272 26.6863 26.2748 26.4405 26.4536C26.1947 26.6324 25.9015 26.7343 25.5978 26.7465C25.2941 26.7587 24.9936 26.6806 24.7343 26.5221L19.9999 23.6083L15.2628 26.5221C15.0035 26.6797 14.7034 26.757 14.4002 26.7444C14.097 26.7318 13.8044 26.6297 13.5591 26.4511C13.3139 26.2725 13.1269 26.0253 13.0219 25.7406C12.9168 25.456 12.8983 25.1466 12.9687 24.8515L14.2587 19.4074L10.0399 15.7671C9.81053 15.5688 9.64462 15.3074 9.56293 15.0154C9.48123 14.7234 9.48737 14.4138 9.58058 14.1252C9.67379 13.8367 9.84994 13.582 10.087 13.393C10.3241 13.204 10.6116 13.089 10.9137 13.0624L16.4449 12.6162L18.5787 7.45241C18.6942 7.17099 18.8908 6.93027 19.1434 6.76085C19.3961 6.59143 19.6934 6.50098 19.9976 6.50098C20.3018 6.50098 20.5991 6.59143 20.8518 6.76085C21.1044 6.93027 21.301 7.17099 21.4165 7.45241L23.5493 12.6162L29.0806 13.0624C29.3832 13.088 29.6716 13.2023 29.9095 13.3911C30.1475 13.5799 30.3244 13.8346 30.4182 14.1235C30.512 14.4124 30.5185 14.7225 30.4368 15.0151C30.3551 15.3076 30.1889 15.5695 29.959 15.768L29.9646 15.7671Z" fill="white"/>
<defs>
<linearGradient id="paint0_linear_1_268328" x1="1.11639" y1="39.9567" x2="44.4808" y2="7.37399" gradientUnits="userSpaceOnUse">
<stop stop-color="#3D10BD"/>
<stop offset="1" stop-color="#62BDFF"/>
</linearGradient>
</defs>
</svg>
