<svg width="256" height="182" viewBox="0 0 256 182" fill="none" xmlns="http://www.w3.org/2000/svg">
<g clip-path="url(#clip0_926_44277)">
<path d="M12.7637 135.536C11.6431 139.719 11.0792 143.901 11.2077 147.856L8.37408 146.35C8.25274 142.395 8.81661 138.206 9.93721 134.023C10.8794 134.527 11.8215 135.032 12.7637 135.536Z" fill="white"/>
<path d="M11.2052 147.856C11.455 155.814 14.4314 161.324 19.0352 163.78L16.2087 162.266C11.5978 159.818 8.62141 154.308 8.37159 146.35C9.22097 146.799 10.3558 147.399 11.2052 147.856Z" fill="white"/>
<path d="M34.5763 104.273C24.5265 110.462 16.1256 122.988 12.7638 135.536C11.8216 135.031 10.8795 134.527 9.93729 134.023C13.2991 121.482 21.6929 108.955 31.7498 102.76C38.4091 98.6631 44.5475 98.1063 49.0941 100.533L51.9277 102.039C47.374 99.6124 41.2428 100.169 34.5763 104.273Z" fill="white"/>
<path d="M49.0923 100.534L51.9259 102.04C56.5297 104.488 59.506 109.991 59.7559 117.949L56.9222 116.443C56.6724 108.485 53.696 102.982 49.0923 100.534Z" fill="#E7EEFC"/>
<path d="M53.9178 95.5156L56.7443 97.0216C62.8398 100.269 66.7798 107.557 67.1152 118.092L64.2816 116.586C63.9533 106.051 60.0133 98.7632 53.9178 95.5156Z" fill="url(#paint0_linear_926_44277)"/>
<path d="M56.9223 116.442C57.4219 132.259 46.9511 151.781 33.5467 160.039C20.1351 168.29 8.87202 162.166 8.37239 146.349C7.8799 130.532 18.3436 111.018 31.748 102.76C45.1524 94.5086 56.4298 100.626 56.9223 116.442Z" fill="#E7EEFC"/>
<path d="M19.0387 163.78L16.2122 162.267C20.7589 164.694 26.8901 164.137 33.5423 160.04C46.9539 151.782 57.4247 132.261 56.9251 116.444L59.7587 117.95C60.2512 133.767 49.7803 153.288 36.3759 161.546C29.7166 165.643 23.5854 166.2 19.0387 163.78Z" fill="#E7EEFC"/>
<path d="M13.2223 178.756L10.3958 177.25C16.4127 180.454 24.5282 179.726 33.3431 174.295C51.0872 163.36 64.9413 137.529 64.2846 116.587L67.1182 118.093C67.7749 139.035 53.9137 164.873 36.1696 175.801C27.3547 181.232 19.2392 181.96 13.2223 178.756Z" fill="url(#paint1_linear_926_44277)"/>
<path d="M63.9277 116.598C64.2536 126.992 60.977 138.623 55.3994 149.025C49.9961 159.101 42.4505 167.992 33.9785 173.471L33.1553 173.991C24.3481 179.414 16.3243 180.067 10.4463 176.871C4.56743 173.674 0.706844 166.557 0.38086 156.161C0.0550513 145.771 3.3317 134.141 8.90918 123.741C14.4868 113.34 22.3476 104.202 31.1533 98.7759C39.9605 93.352 47.9842 92.6994 53.8623 95.895C59.7412 99.0911 63.6017 106.206 63.9277 116.598ZM57.2822 116.426C57.0336 108.447 54.0576 102.819 49.3506 100.263C44.6429 97.707 38.3313 98.2923 31.5645 102.458L31.5635 102.458C24.795 106.627 18.7888 113.625 14.5371 121.553C10.2854 129.482 7.76996 138.376 8.01856 146.362C8.27073 154.345 11.245 159.976 15.9502 162.535C20.6562 165.094 26.9659 164.51 33.7363 160.344L33.7373 160.344C40.5057 156.174 46.5131 149.176 50.7656 141.245C55.0182 133.313 57.5344 124.415 57.2822 116.426Z" fill="white" stroke="#ECEDEE" stroke-width="0.713759"/>
<path d="M49.0032 101.183L49.9453 101.683C44.8562 98.9704 37.9898 99.5843 30.5525 104.167C15.5707 113.395 3.85076 135.265 4.40036 152.923L3.45819 152.424C2.90146 134.765 14.6285 112.889 29.6103 103.667C37.0477 99.0846 43.9141 98.4708 49.0032 101.183Z" fill="#B5CAF7"/>
<path d="M13.1719 170.724L12.2297 170.224C7.07637 167.476 3.73599 161.317 3.45762 152.423L4.39979 152.923C4.67816 161.816 8.01853 167.976 13.1719 170.724Z" fill="#B5CAF7"/>
<path d="M50.2408 98.8711L51.183 99.3707C56.6789 102.304 60.2406 108.864 60.5332 118.35L59.591 117.85C59.2984 108.364 55.7367 101.798 50.2408 98.8711Z" fill="#B5CAF7"/>
<path d="M11.945 173.037L11.0028 172.53C16.4274 175.428 23.7506 174.771 31.6804 169.882C47.6686 160.039 60.1808 136.699 59.5884 117.849L60.5306 118.348C61.123 137.206 48.6108 160.539 32.6226 170.388C24.6927 175.271 17.3696 175.927 11.945 173.037Z" fill="#B5CAF7"/>
<path fill-rule="evenodd" clip-rule="evenodd" d="M59.5892 117.849C60.1816 136.699 47.6694 160.039 31.6812 169.882C15.7073 179.725 2.23151 172.402 1.63909 153.544C1.04667 134.701 13.566 111.361 29.5399 101.518C45.5281 91.6754 59.0039 98.9986 59.5892 117.849ZM3.45917 152.423C4.00876 170.089 16.6423 176.963 31.617 167.741C46.5916 158.512 58.3258 136.635 57.7762 118.97C57.2195 101.311 44.586 94.4376 29.6113 103.667C14.6295 112.888 2.90244 134.765 3.45917 152.423Z" fill="#007DF5"/>
<path d="M31.809 121.735L37.0146 122.533L35.2348 131.683L47.1916 133.721C47.5501 133.782 47.8737 133.357 47.8374 132.765L44.4426 123.059L43.179 119.39L40.917 112.717C40.2179 110.655 39.2739 108.603 37.7017 108.76C36.8611 108.844 35.9849 109.303 35.279 110.115L25.3119 121.581C24.3153 122.728 23.3221 125.182 23.1282 127.014L21.428 142.581C21.1218 145.334 22.0923 148.152 23.5827 148.838L31.9973 152.77C32.997 153.228 34.6249 152.667 35.6216 151.52L43.6566 142.277C43.7829 142.131 43.7727 141.839 43.6403 141.807L28.7608 138.26L31.809 121.735Z" fill="#1053E5"/>
<path d="M59.2988 42.3533C57.75 46.3932 56.7507 50.483 56.4581 54.423L53.81 52.6314C54.1027 48.6915 55.1019 44.5945 56.6508 40.5618C57.5358 41.1613 58.4185 41.7585 59.2988 42.3533Z" fill="white"/>
<path d="M84.2439 13.6024C73.6089 18.6915 63.9589 30.2473 59.298 42.3526C58.4177 41.7578 57.535 41.1606 56.65 40.5611C61.3037 28.4557 70.9608 16.9 81.5958 11.8037C88.6407 8.42767 94.7861 8.52756 99.0473 11.4111L101.695 13.2027C97.4342 10.3191 91.2887 10.2263 84.2439 13.6024Z" fill="white"/>
<path d="M56.4566 54.4229C55.8713 62.3528 58.2482 68.1342 62.5664 71.0535L59.9184 69.262C55.6001 66.3427 53.2233 60.5612 53.8086 52.6313C54.6009 53.1667 55.6644 53.8876 56.4566 54.4229Z" fill="white"/>
<path d="M99.047 11.4121L101.695 13.2037C106.013 16.1229 108.39 21.9044 107.805 29.8342L105.15 28.0356C105.742 20.1129 103.358 14.3314 99.047 11.4121Z" fill="#E8EFF9"/>
<path d="M105.9 2.83935L108.555 4.63804C114.265 8.49948 117.413 16.151 116.635 26.6433L113.98 24.8446C114.765 14.3523 111.61 6.70793 105.9 2.83935Z" fill="url(#paint2_linear_926_44277)"/>
<path d="M62.5666 71.0529L59.9186 69.2614C64.1726 72.1379 70.318 72.2378 77.3557 68.8688C91.5452 62.0738 103.979 43.7873 105.15 28.0347L107.805 29.8333C106.634 45.586 94.1933 63.8654 80.0109 70.6604C72.9661 74.0293 66.8278 73.9365 62.5666 71.0529Z" fill="#E8EFF9"/>
<path d="M105.813 3.20117C111.319 6.99399 114.405 14.4669 113.636 24.8193C112.87 35.1732 108.394 46.3784 101.763 56.1201C95.131 65.8617 86.3645 74.11 77.0498 78.5742C67.7337 83.0355 59.6932 82.8409 54.1875 79.0469C48.681 75.2522 45.5952 67.7774 46.3643 57.4248C47.1333 47.0746 51.6087 35.8704 58.2393 26.1289C64.87 16.3872 73.6346 8.13848 82.9492 3.67773C92.2655 -0.783723 100.307 -0.591102 105.813 3.20117ZM105.491 28.0615C106.082 20.117 103.722 14.217 99.3242 11.1846C94.9256 8.15166 88.6035 8.066 81.4463 11.4951C74.2912 14.925 67.5944 21.2411 62.541 28.666C57.4876 36.0911 54.0566 44.6561 53.4658 52.6064C52.8753 60.5543 55.2351 66.4538 59.6318 69.4863C64.0295 72.5194 70.3502 72.6053 77.5039 69.1797C84.6663 65.7498 91.3646 59.4316 96.418 52.0049C101.471 44.5781 104.9 36.0117 105.491 28.0615Z" fill="white" stroke="#ECEDEE" stroke-width="0.6869"/>
<path d="M105.15 28.0351C103.979 43.7878 91.5453 62.0743 77.3557 68.8693C63.1805 75.6571 52.6382 68.3839 53.8088 52.6313C54.9794 36.8786 67.4202 18.5992 81.5955 11.8043C95.7779 5.00927 106.32 12.2896 105.15 28.0351Z" fill="#E8EFF9"/>
<path d="M56.7556 81.195L54.1004 79.4035C59.7391 83.215 67.8759 83.3435 77.1976 78.8825C95.9623 69.8891 112.436 45.6998 113.978 24.8437L116.633 26.6424C115.084 47.4913 98.6175 71.6878 79.8528 80.674C70.524 85.1422 62.3871 85.0137 56.7556 81.195Z" fill="url(#paint3_linear_926_44277)"/>
<path d="M99.9958 7.62509L100.881 8.22467C96.1129 4.99848 89.2394 4.88426 81.3667 8.65291C65.5284 16.2402 51.5815 36.7179 50.2753 54.3192L49.3974 53.7197C50.7036 36.1255 64.6504 15.6406 80.4888 8.05337C88.3544 4.28472 95.2279 4.3989 99.9958 7.62509Z" fill="#91B0F3"/>
<path d="M57.1191 72.9048L56.2341 72.3053C51.4019 69.0363 48.7325 62.5767 49.3963 53.719L50.2742 54.3186C49.6175 63.1763 52.287 69.6358 57.1191 72.9048Z" fill="#91B0F3"/>
<path d="M101.464 5.45459L102.341 6.05412C107.502 9.53727 110.343 16.4322 109.643 25.8824L108.758 25.2828C109.465 15.8326 106.617 8.94487 101.464 5.45459Z" fill="#91B0F3"/>
<path d="M55.6558 75.0684L54.7707 74.4689C59.8598 77.9163 67.1973 78.0377 75.5911 74.0192C92.4858 65.9252 107.368 44.0556 108.759 25.2837L109.645 25.8833C108.253 44.6551 93.3708 66.5247 76.4761 74.6116C68.0823 78.6372 60.7449 78.5087 55.6558 75.0684Z" fill="#91B0F3"/>
<path fill-rule="evenodd" clip-rule="evenodd" d="M108.759 25.2826C107.367 44.0545 92.4856 65.9241 75.5909 74.0181C58.6962 82.105 46.0769 73.4114 47.4688 54.6395C48.8606 35.8676 63.7496 13.9981 80.6443 5.9112C97.539 -2.18282 110.158 6.51073 108.759 25.2826ZM49.3959 53.7188C48.0897 71.3201 59.9096 79.4641 75.7479 71.8768C91.5862 64.2896 105.526 43.8047 106.832 26.2105C108.138 8.60922 96.3256 0.465222 80.4873 8.05248C64.6489 15.6397 50.695 36.1246 49.3959 53.7188Z" fill="#007DF5"/>
<path d="M76.5377 29.7701L82.1485 30.9599L79.9632 39.7186L92.8452 42.6497C93.2315 42.7376 93.5936 42.3507 93.5711 41.7715L90.1722 32.0614L88.9088 28.392L86.6499 21.7221C85.9518 19.6607 84.9882 17.5905 83.2823 17.6179C82.3702 17.6325 81.4091 18.0097 80.6221 18.7435L69.5108 29.105C68.3997 30.1411 67.2554 32.4493 66.9936 34.2155L64.7127 49.2224C64.3033 51.8756 65.2738 54.694 66.8672 55.4796L75.8622 59.9716C76.9311 60.4968 78.7086 60.0803 79.8197 59.0442L88.7772 50.6912C88.918 50.5599 88.9152 50.2746 88.7728 50.2335L72.7707 45.6012L76.5377 29.7701Z" fill="#1053E5"/>
<path d="M115.735 160.854C122.959 163.823 129.09 163.373 133.18 160.254L130.639 162.196C126.549 165.315 120.418 165.764 113.194 162.795C98.6551 156.828 85.1865 139.284 83.1237 123.624L85.6719 121.683C87.7346 137.342 101.196 154.887 115.735 160.854Z" fill="white"/>
<path d="M90.8203 104.731C86.6734 107.893 84.632 113.803 85.6741 121.682L83.126 123.624C82.0839 115.744 84.1324 109.834 88.2722 106.672C89.0359 106.087 90.0566 105.316 90.8203 104.731Z" fill="white"/>
<path d="M133.184 160.255L130.643 162.196C134.783 159.034 136.832 153.131 135.789 145.251L138.338 143.303C139.373 151.183 137.331 157.093 133.184 160.255Z" fill="#E8EFF9"/>
<path d="M140.406 176.007L137.858 177.949C143.339 173.766 146.045 165.95 144.674 155.515L147.215 153.574C148.593 164.009 145.888 171.825 140.406 176.007Z" fill="url(#paint4_linear_926_44277)"/>
<path d="M135.788 145.251C137.858 160.903 127.737 168.769 113.198 162.795C98.6583 156.828 85.1897 139.284 83.1269 123.624C81.0642 107.964 91.171 100.098 105.71 106.072C120.25 112.039 133.725 129.591 135.788 145.251Z" fill="#E8EFF9"/>
<path d="M88.2748 106.673L90.8229 104.732C94.9056 101.613 101.037 101.163 108.26 104.132C122.799 110.099 136.268 127.65 138.338 143.303L135.79 145.252C133.727 129.592 120.251 112.041 105.712 106.073C98.4959 103.104 92.3646 103.554 88.2748 106.673Z" fill="#E8EFF9"/>
<path d="M81.7793 104.467L84.3203 102.526C89.7306 98.3934 97.8532 97.801 107.41 101.727C126.661 109.635 144.483 132.847 147.217 153.574L144.676 155.516C141.935 134.788 124.112 111.577 104.869 103.668C95.3051 99.7424 87.1896 100.335 81.7793 104.467Z" fill="url(#paint5_linear_926_44277)"/>
<path d="M144.319 155.562C145.676 165.855 143.022 173.489 137.745 177.587C132.469 181.685 124.457 182.336 114.902 178.41C105.353 174.489 96.1335 166.758 88.958 157.412C81.7827 148.067 76.6748 137.138 75.3145 126.847C73.9574 116.557 76.6119 108.924 81.8887 104.826C87.1647 100.729 95.1769 100.077 104.731 103.998L104.732 103.997C114.281 107.922 123.5 115.656 130.675 125.001C137.85 134.347 142.959 145.275 144.319 155.562ZM130.939 162.415C135.163 159.134 137.185 153.105 136.141 145.204C135.099 137.298 131.182 128.938 125.71 121.81C120.238 114.682 113.186 108.756 105.845 105.742C98.5047 102.726 92.195 103.171 87.9727 106.454C83.7512 109.737 81.7304 115.767 82.7715 123.671C83.813 131.578 87.7287 139.936 93.1992 147.062C98.6696 154.188 105.719 160.112 113.061 163.125C120.401 166.141 126.714 165.697 130.939 162.415Z" fill="white" stroke="#ECEDEE" stroke-width="0.713759"/>
<path d="M132.41 170.951L131.561 171.593C126.978 175.09 120.119 175.59 112.047 172.278C95.8086 165.612 80.7197 145.962 78.4071 128.468L79.2565 127.818C81.5691 145.312 96.658 164.962 112.896 171.629C120.969 174.948 127.828 174.441 132.41 170.951Z" fill="#91B0F3"/>
<path d="M84.1838 109.519L85.0332 108.869C80.3938 112.409 78.1026 119.012 79.2589 127.819L78.4095 128.469C77.2532 119.661 79.5444 113.059 84.1838 109.519Z" fill="#91B0F3"/>
<path d="M133.995 173.028L133.146 173.67C138.092 169.902 140.533 162.857 139.299 153.464L140.148 152.822C141.383 162.207 138.942 169.252 133.995 173.028Z" fill="#91B0F3"/>
<path d="M82.598 107.441L83.4474 106.792C88.3295 103.066 95.6384 102.524 104.246 106.057C121.584 113.18 137.686 134.157 140.148 152.822L139.299 153.465C136.837 134.807 120.734 113.822 103.397 106.706C94.7962 103.173 87.4801 103.716 82.598 107.441Z" fill="#91B0F3"/>
<path fill-rule="evenodd" clip-rule="evenodd" d="M139.299 153.465C141.761 172.13 129.67 181.523 112.326 174.407C95.0029 167.291 78.9005 146.32 76.4381 127.656C73.9756 108.998 86.0667 99.5905 103.397 106.707C120.734 113.823 136.836 134.807 139.299 153.465ZM78.408 128.469C80.7206 145.963 95.8095 165.613 112.048 172.28C128.293 178.953 139.634 170.153 137.329 152.659C135.016 135.164 119.927 115.5 103.682 108.834C87.4442 102.167 76.1026 110.968 78.408 128.469Z" fill="#007DF5"/>
<path d="M108.019 126.766L115.335 135.436L110.87 139.114L127.632 159.172C128.134 159.773 128.688 159.978 128.759 159.504L125.902 147.376L124.85 142.822L122.99 134.596C122.415 132.054 121.485 129.138 119.193 126.799C117.967 125.549 116.612 124.508 115.428 123.981L98.7123 116.539C97.0408 115.795 95.1018 115.978 94.4413 116.967L88.7534 125.291C87.7396 126.754 88.5472 130.252 90.5465 133.057L101.822 148.933C103.164 150.813 105.62 152.953 107.292 153.697L120.767 159.696C120.979 159.791 121.026 159.569 120.842 159.34L100.194 133.666L108.019 126.766Z" fill="#1053E5"/>
<path d="M194.961 58.563C184.019 64.8798 174.462 73.6233 168.88 83.2876L166.61 79.3762C172.192 69.7119 181.749 60.9684 192.684 54.6516C193.445 55.9554 194.204 57.2592 194.961 58.563Z" fill="white"/>
<path d="M229.329 48.3855C218.216 48.3499 205.896 52.2469 194.962 58.5637C194.205 57.2599 193.446 55.9561 192.685 54.6523C203.627 48.3356 215.946 44.4384 227.052 44.4741C238.094 44.5027 245.867 48.3998 249.514 54.688L251.791 58.5994C248.137 52.3112 240.371 48.4141 229.329 48.3855Z" fill="white"/>
<path d="M168.879 83.2874C163.262 93.023 162.741 101.838 166.438 108.212L164.168 104.3C160.464 97.9266 160.985 89.1117 166.609 79.376C167.287 80.5537 168.201 82.1168 168.879 83.2874Z" fill="white"/>
<path d="M249.512 54.6873L251.789 58.5987C255.486 64.9654 254.965 73.7875 249.348 83.516L247.071 79.6046C252.689 69.8761 253.217 61.054 249.512 54.6873Z" fill="#E8EFF9"/>
<path d="M250.456 54.8372L252.733 58.7485C257.63 67.178 256.937 78.848 249.5 91.7242L247.23 87.8128C254.667 74.9366 255.353 63.2667 250.456 54.8372Z" fill="url(#paint6_linear_926_44277)"/>
<path d="M247.073 79.6051C235.91 98.9408 208.844 114.572 186.617 114.508C164.398 114.451 155.448 98.7124 166.611 79.3767C177.774 60.0409 204.84 44.4096 227.052 44.4738C249.286 44.5381 258.236 60.2693 247.073 79.6051Z" fill="#E8EFF9"/>
<path d="M166.439 108.212L164.17 104.301C167.817 110.582 175.583 114.479 186.617 114.508C208.844 114.572 235.91 98.9407 247.073 79.605L249.35 83.5164C238.186 102.852 211.121 118.483 188.887 118.419C177.852 118.391 170.094 114.494 166.439 108.212Z" fill="#E8EFF9"/>
<path d="M139.761 124.4L137.492 120.489C142.324 128.811 152.609 133.972 167.22 134.015C196.627 134.093 232.45 113.408 247.232 87.813L249.502 91.7244C234.727 117.32 198.904 138.005 169.49 137.926C154.879 137.883 144.601 132.723 139.761 124.4Z" fill="url(#paint7_linear_926_44277)"/>
<path d="M250.236 55.1777C254.947 63.4432 254.268 74.9045 246.918 87.6338C239.569 100.365 226.97 111.894 212.529 120.231C198.089 128.569 181.841 133.695 167.216 133.656C152.585 133.614 142.412 128.418 137.702 120.152C133.065 112.015 133.651 100.781 140.682 88.2861L141.021 87.6904C148.374 74.9596 160.974 63.4305 175.413 55.0937C189.853 46.757 206.098 41.6322 220.724 41.6748C233.089 41.7108 242.269 45.4272 247.659 51.5664C243.413 46.8988 236.355 44.1421 227.05 44.1152C215.866 44.0829 203.484 48 192.506 54.3398C181.528 60.6797 171.919 69.4626 166.299 79.1973C160.68 88.9297 160.078 97.8392 163.782 104.347C167.371 110.652 174.935 114.584 185.574 114.85L186.613 114.863C197.804 114.896 210.189 110.979 221.169 104.64C232.149 98.2997 241.759 89.5169 247.379 79.7822C252.998 70.0498 253.6 61.1415 249.894 54.6348C249.746 54.375 249.588 54.1207 249.427 53.8691C249.712 54.2964 249.982 54.7324 250.236 55.1777Z" fill="white" stroke="#ECEDEE" stroke-width="0.713759"/>
<path d="M240.29 58.4281L241.047 59.7343C236.964 52.6966 228.278 48.3284 215.944 48.2927C191.134 48.2214 160.792 65.737 148.322 87.3425L147.566 86.0363C160.035 64.438 190.377 46.9152 215.187 46.9865C227.521 47.0222 236.2 51.3904 240.29 58.4281Z" fill="#91B0F3"/>
<path d="M145.615 115.2L144.851 113.894C140.712 106.771 141.283 96.9067 147.564 86.0361L148.32 87.3423C142.046 98.2128 141.468 108.07 145.615 115.2Z" fill="#91B0F3"/>
<path d="M243.486 56.5718L244.242 57.878C248.66 65.4795 248.046 76.0074 241.351 87.606L240.595 86.2999C247.29 74.7013 247.904 64.1805 243.486 56.5718Z" fill="#91B0F3"/>
<path d="M142.419 117.063L141.663 115.764C146.024 123.266 155.281 127.927 168.436 127.962C194.923 128.041 227.292 109.348 240.597 86.3003L241.354 87.6064C228.049 110.647 195.687 129.347 169.192 129.269C156.045 129.233 146.78 124.572 142.419 117.063Z" fill="#91B0F3"/>
<path fill-rule="evenodd" clip-rule="evenodd" d="M240.597 86.3008C227.292 109.348 194.923 128.041 168.436 127.963C141.955 127.892 131.249 109.07 144.553 86.0296C157.851 62.9894 190.22 44.2889 216.7 44.3674C243.195 44.4388 253.901 63.2606 240.597 86.3008ZM147.565 86.0367C135.089 107.642 145.146 125.258 169.956 125.329C194.781 125.401 225.115 107.899 237.585 86.2936C250.054 64.6882 240.012 47.0583 215.187 46.9869C190.377 46.9155 160.035 64.4383 147.565 86.0367Z" fill="#007DF5"/>
<path d="M199.422 67.9018L206.644 74.8879L195.689 85.4638L212.094 101.791C212.586 102.28 213.462 102.063 213.94 101.206L217.502 84.0133L218.879 77.5358L221.437 65.7971C222.228 62.1691 222.635 58.2793 220.095 56.7162C218.738 55.8804 216.988 55.5214 215.179 55.8403L189.648 60.3421C187.095 60.7922 183.37 63.0453 181.425 65.346L164.812 84.8405C161.866 88.2815 160.808 93.2568 162.464 95.8863L171.761 110.813C172.873 112.574 175.862 113.643 178.415 113.193L198.996 109.564C199.32 109.507 199.568 109.093 199.394 108.9L179.89 87.1889L199.422 67.9018Z" fill="#1053E5"/>
</g>
<defs>
<linearGradient id="paint0_linear_926_44277" x1="69.8133" y1="93.086" x2="19.5187" y2="206.43" gradientUnits="userSpaceOnUse">
<stop stop-color="#072360"/>
<stop offset="1" stop-color="#E7EEFC"/>
</linearGradient>
<linearGradient id="paint1_linear_926_44277" x1="154.711" y1="131.947" x2="111.827" y2="228.591" gradientUnits="userSpaceOnUse">
<stop stop-color="#072360"/>
<stop offset="1" stop-color="#E7EEFC"/>
</linearGradient>
<linearGradient id="paint2_linear_926_44277" x1="114.512" y1="15.136" x2="58.7767" y2="122.261" gradientUnits="userSpaceOnUse">
<stop stop-color="#072360"/>
<stop offset="1" stop-color="#E7EEFC"/>
</linearGradient>
<linearGradient id="paint3_linear_926_44277" x1="195.027" y1="55.6803" x2="146.406" y2="149.131" gradientUnits="userSpaceOnUse">
<stop stop-color="#072360"/>
<stop offset="1" stop-color="#E7EEFC"/>
</linearGradient>
<linearGradient id="paint4_linear_926_44277" x1="170.608" y1="110.35" x2="141.067" y2="179.869" gradientUnits="userSpaceOnUse">
<stop stop-color="#072360"/>
<stop offset="1" stop-color="#E7EEFC"/>
</linearGradient>
<linearGradient id="paint5_linear_926_44277" x1="167.365" y1="107.925" x2="136.838" y2="179.765" gradientUnits="userSpaceOnUse">
<stop stop-color="#072360"/>
<stop offset="1" stop-color="#E7EEFC"/>
</linearGradient>
<linearGradient id="paint6_linear_926_44277" x1="239.442" y1="78.8287" x2="83.7426" y2="121.859" gradientUnits="userSpaceOnUse">
<stop stop-color="#072360"/>
<stop offset="1" stop-color="#E7EEFC"/>
</linearGradient>
<linearGradient id="paint7_linear_926_44277" x1="283.796" y1="228.592" x2="159.755" y2="262.873" gradientUnits="userSpaceOnUse">
<stop stop-color="#072360"/>
<stop offset="1" stop-color="#E7EEFC"/>
</linearGradient>
<clipPath id="clip0_926_44277">
<rect width="255.86" height="181.39" fill="white"/>
</clipPath>
</defs>
</svg>
